<svg width="219" height="328" viewBox="0 0 219 328" fill="none" xmlns="http://www.w3.org/2000/svg">
<path fill-rule="evenodd" clip-rule="evenodd" d="M125.524 135.65C126.736 124.682 128.57 113.432 133.2 103.273C134.791 90.1363 132.111 71.3214 144.292 62.4626C144.136 60.8897 146.958 59.5343 148.265 58.6947C150.39 57.3042 153.263 54.5721 155.778 56.1026C156.572 55.8607 158.528 56.8509 159.429 54.7033C160.351 52.5035 160.217 48.0926 160.953 47.69C160.628 44.5112 174.93 42.3844 178.662 46.8775C180.435 50.3238 178.399 51.4208 182.395 55.9511C184.16 56.0594 185.844 56.5064 187.471 57.1194C188.815 57.3051 190.152 57.5309 191.483 57.766C208.456 59.3355 209.739 71.8847 211.244 85.361C212.532 103.464 218.127 121.498 215.708 139.744C217.045 146.268 217.133 153.229 215.536 159.691C220.77 167.329 216.976 171.556 213.712 178.818C213.159 180.124 212.678 181.47 212.434 182.864C212.498 183.944 212.491 185.025 212.301 186.097C211.747 188.54 207.672 188.198 207.491 185.73C207.172 184.109 207.271 182.428 207.023 180.799C207.038 180.884 207.063 181.047 207.063 181.059C206.465 176.961 205.502 175.372 202.841 172.244C199.424 167.309 201.525 161.108 200.746 155.585C200.532 153.739 200.249 151.918 200.06 150.069C198.908 150.746 197.656 151.311 196.347 151.664C197.172 158.019 195.738 164.405 194.143 170.553C189.828 186.39 184.107 202.653 186.592 219.272C186.591 219.264 189.301 232.856 191.442 239.564C194.031 248.072 196.115 256.594 199.777 264.752C201.739 270.624 205.888 276.194 205.727 282.516C207.16 284.633 204.58 287.176 202.307 287.169C202.307 289.08 202.812 291.836 203.822 295.436C204.06 297.438 205.085 299.987 203.535 301.687C205.642 307.047 206.382 312.847 206.96 318.52C207.181 321.211 207.434 324.454 204.551 325.98C201.864 327.141 198.736 326.63 195.867 326.977C193.091 326.98 190.219 327.707 187.489 327.08C184.354 326.188 183.723 322.795 184.313 320.083C184.694 317.258 185.15 314.442 185.649 311.634C187.131 305.521 187.546 298.737 189.444 292.856C188.38 292.657 187.313 292.122 186.592 291.341C184.759 291.281 183.408 289.919 182.959 288.308C182.635 287.27 181.24 287.056 180.3 286.726C180.124 287.622 179.611 288.376 179.193 289.192C179.55 290.923 178.358 292.948 176.39 292.988C176.106 293.261 175.842 293.539 175.551 293.8C177.789 297.089 179.448 300.803 179.869 304.721C180.375 307.726 180.905 312.541 176.923 313.431C175.419 313.629 173.802 314.013 172.328 313.466C170.686 314.202 168.94 314.555 167.171 314.871C159.592 316.148 152.282 316.041 144.64 316.899C142.623 317.179 134.545 318.007 133.2 316.899C131.56 317.234 132.552 316.012 131.862 314.871C131.312 314.013 129.844 312.371 130.792 311.896C132.779 311.039 134.541 309.353 136.36 308.397C144.859 303.565 163.19 295.337 163.063 295.105C163.088 295.269 162.952 291.133 162.272 290.036C161.317 289.089 159.412 289.255 158.414 288.35C157.781 288.38 153.03 287.015 153.437 284.729C153.958 282.904 152.256 280.667 153.437 279.126C149.526 243.447 140.426 208.842 135.404 173.353C135.293 173.255 135.183 173.157 135.072 173.059C132.482 173.492 130.471 170.894 129.684 168.848C129.306 168.464 128.941 168.069 128.607 167.64C126.497 164.899 126.459 161.329 126.219 158.068C125.697 157.685 125.361 157.09 125.332 156.386C125.249 154.29 125.16 152.194 125.072 150.099C125.071 150.099 125.071 150.099 125.071 150.098C124.421 149.055 124.332 147.883 124.518 146.688C124.449 142.824 123.853 139.205 125.524 135.65Z" fill="#3C3A3A"/>
<mask id="mask0" mask-type="alpha" maskUnits="userSpaceOnUse" x="125" y="44" width="94" height="119">
<path d="M125 44H219L215 158.5L200.5 163L201 157L200.5 150L169.5 155L143.5 152.5L144 140.5L141 124.5L132 106L125 44Z" fill="#C4C4C4"/>
</mask>
<g mask="url(#mask0)">
<path fill-rule="evenodd" clip-rule="evenodd" d="M124.524 135.65C125.736 124.682 127.57 113.432 132.2 103.273C133.791 90.1363 131.111 71.3214 143.292 62.4626C143.136 60.8897 145.958 59.5343 147.265 58.6947C149.39 57.3042 152.263 54.5721 154.778 56.1026C155.572 55.8607 157.528 56.8509 158.429 54.7033C159.351 52.5035 159.217 48.0926 159.953 47.69C159.628 44.5112 173.93 42.3844 177.662 46.8775C179.435 50.3238 177.399 51.4208 181.395 55.9511C183.16 56.0594 184.844 56.5064 186.471 57.1194C187.815 57.3051 189.152 57.5309 190.483 57.766C207.456 59.3355 208.739 71.8847 210.244 85.361C211.532 103.464 217.127 121.498 214.708 139.744C216.045 146.268 216.133 153.229 214.536 159.691C219.77 167.329 215.976 171.556 212.712 178.818C212.159 180.124 211.678 181.47 211.434 182.864C211.498 183.944 211.491 185.025 211.301 186.097C210.747 188.54 206.672 188.198 206.491 185.73C206.172 184.109 206.271 182.428 206.023 180.799C206.038 180.884 206.063 181.047 206.063 181.059C205.465 176.961 204.502 175.372 201.841 172.244C198.424 167.309 200.525 161.108 199.746 155.585C199.532 153.739 199.249 151.918 199.06 150.069C197.908 150.746 196.656 151.311 195.347 151.664C196.172 158.019 194.738 164.405 193.143 170.553C188.828 186.39 183.107 202.653 185.592 219.272C185.591 219.264 188.301 232.856 190.442 239.564C193.031 248.072 195.115 256.594 198.777 264.752C200.739 270.624 204.888 276.194 204.727 282.516C206.16 284.633 203.58 287.176 201.307 287.169C201.307 289.08 201.812 291.836 202.822 295.436C203.06 297.438 204.085 299.987 202.535 301.687C204.642 307.047 205.382 312.847 205.96 318.52C206.181 321.211 206.434 324.454 203.551 325.98C200.864 327.141 197.736 326.63 194.867 326.977C192.091 326.98 189.219 327.707 186.489 327.08C183.354 326.188 182.723 322.795 183.313 320.083C183.694 317.258 184.15 314.442 184.649 311.634C186.131 305.521 186.546 298.737 188.444 292.856C187.38 292.657 186.313 292.122 185.592 291.341C183.759 291.281 182.408 289.919 181.959 288.308C181.635 287.27 180.24 287.056 179.3 286.726C179.124 287.622 178.611 288.376 178.193 289.192C178.55 290.923 177.358 292.948 175.39 292.988C175.106 293.261 174.842 293.539 174.551 293.8C176.789 297.089 178.448 300.803 178.869 304.721C179.375 307.726 179.905 312.541 175.923 313.431C174.419 313.629 172.802 314.013 171.328 313.466C169.686 314.202 167.94 314.555 166.171 314.871C158.592 316.148 151.282 316.041 143.64 316.899C141.623 317.179 133.545 318.007 132.2 316.899C130.56 317.234 131.552 316.012 130.862 314.871C130.312 314.013 128.844 312.371 129.792 311.896C131.779 311.039 133.541 309.353 135.36 308.397C143.859 303.565 162.19 295.337 162.063 295.105C162.088 295.269 161.952 291.133 161.272 290.036C160.317 289.089 158.412 289.255 157.414 288.35C156.781 288.38 152.03 287.015 152.437 284.729C152.958 282.904 151.256 280.667 152.437 279.126C148.526 243.447 139.426 208.842 134.404 173.353C134.293 173.255 134.183 173.157 134.072 173.059C131.482 173.492 129.471 170.894 128.684 168.848C128.306 168.464 127.941 168.069 127.607 167.64C125.497 164.899 125.459 161.329 125.219 158.068C124.697 157.685 124.361 157.09 124.332 156.386C124.249 154.29 124.16 152.194 124.072 150.099C124.071 150.099 124.071 150.099 124.071 150.098C123.421 149.055 123.332 147.883 123.518 146.688C123.449 142.824 122.853 139.205 124.524 135.65Z" fill="#70C1FF"/>
</g>
<path fill-rule="evenodd" clip-rule="evenodd" d="M178.748 46.4963C178.709 46.1542 178.252 46.1594 178.208 46.4963C177.728 50.5676 179.337 55.2417 183.296 57.139C180.328 59.7577 178.239 63.2588 174.677 65.2358C167.203 70.0988 156.403 65.5486 154.741 56.9722C156.586 56.5497 160.022 56.5855 160.583 54.433C160.853 54.1559 160.993 51.7813 160.976 50.03C160.993 49.7044 161.003 49.3785 161.014 49.055C161.043 48.7929 161.051 48.5257 161.048 48.257C161.042 47.674 160.168 47.6854 160.132 48.257C160.116 48.4914 160.106 48.7287 160.097 48.9671C160.09 49.0301 160.082 49.0928 160.074 49.1556C159.954 49.5917 159.871 50.0475 159.772 50.4614C159.72 50.6842 159.665 50.9095 159.606 51.1345C159.522 51.7242 159.371 52.3004 159.113 52.8459C158.426 54.2965 156.733 55.542 155.065 55.5555C154.707 55.5584 154.352 55.5059 153.994 55.5149C153.411 55.5297 152.935 55.7603 152.415 55.9952C151.946 56.2071 151.505 56.3505 151.052 56.3498C132.369 62.6784 134.942 85.8449 132.096 101.508C129.196 117.063 123.205 132.059 122.323 147.956C122.058 149.604 123.881 150.216 125.012 150.995C125.313 155.143 123.566 159.341 124.778 163.445C125.899 166.801 130.418 174.869 134.736 173.598C139.633 210.768 151.014 245.217 152.09 282.84C151 285.985 154.13 288.269 157.017 288.729L157.411 288.956C158.727 289.711 160.087 290.449 161.527 290.916C161.564 290.937 161.6 290.958 161.636 290.978C161.706 291.016 161.781 291.039 161.858 291.051C161.778 292.014 161.473 292.918 161.08 293.797C155.09 295.178 149.829 298.802 144.196 301.172C140.562 303.404 129.47 306.63 128.628 310.552L128.605 310.671C128.267 312.428 129.213 314.596 131.216 314.763C130.17 315.536 130.855 317.098 131.994 317.399C133.363 317.763 134.849 317.608 136.258 317.721C149.55 318.138 162.959 316.965 175.915 313.988C177.003 313.737 178.136 313.409 179.053 312.76C184.676 308.314 178.823 298.906 177.441 293.14C177.943 293.06 178.439 292.95 178.927 292.806L179.036 292.773C179.51 292.63 180 292.458 180.368 292.124C180.383 292.11 180.395 292.095 180.41 292.081C182.778 292.047 180.366 286.836 180.153 285.442C181.115 287.49 181.901 289.676 183.054 291.626C183.848 292.828 185.589 291.994 186.758 291.91C186.369 299.037 184.666 305.986 182.917 312.892C181.497 318.627 179.059 325.517 187.105 327.261C192.647 328.711 205.853 328.157 208.215 322.095C208.912 317.16 207.386 312.158 206.632 307.294L206.5 306.602C205.599 301.874 204.766 297.123 203.46 292.483C203.28 291.727 203.059 290.987 202.821 290.252C202.79 289.823 202.767 289.393 202.795 288.962C202.831 288.398 202.938 287.845 203.051 287.292C203.066 287.222 203.079 287.14 203.092 287.053C205.426 285.977 207.159 284.761 207.382 283.448C207.611 282.203 207.149 280.94 206.806 279.751L206.786 279.682C199.27 253.317 184.975 229.559 187.411 201.436C188.307 187.604 194.864 174.882 195.971 161.086C196.607 158.334 197.182 155.554 197.274 152.716C197.667 152.624 198.063 152.54 198.455 152.439C198.684 153.665 198.974 154.882 199.45 156.027C199.633 158.29 199.516 160.579 199.122 162.818C199.031 163.333 199.282 163.782 199.708 163.947C198.685 167.131 198.483 171.124 201.121 173.59L201.339 173.735C203.63 175.258 203.87 175.689 204.403 178.528L206.157 185.703C206.377 186.591 206.64 187.496 207.274 188.193C208.956 190.043 211.633 188.836 212.501 186.864C213.292 184.844 213.286 182.62 213.864 180.539C214.304 178.39 215.522 176.555 216.73 174.753C219.429 170.616 219.644 164.857 216.634 160.805C216.372 160.135 216.131 159.475 215.852 158.816C216.893 157.595 216.223 155.673 216.342 154.179C216.344 152.946 216.367 151.713 216.405 150.48C216.624 143.2 217.375 135.965 217.402 128.684C217.694 118.87 215.109 109.365 213.61 99.7399C212.322 90.2354 212.39 80.5452 210.282 71.1514C206.359 52.713 184.342 59.7426 180.617 52.4766C179.491 50.6584 178.988 48.5894 178.748 46.4963ZM205.642 319.835C205.975 322.287 204.251 322.876 202.274 323.621C197.235 325.468 191.416 325.906 186.293 324.145C185.385 323.761 184.736 323.187 184.413 322.346C191.523 322.995 198.988 322.523 205.642 319.835ZM178.538 308.917C178.092 311.119 175.252 311.378 173.35 311.748C168.808 312.698 164.223 313.461 159.611 314C150.675 315.076 141.634 315.262 132.654 314.853C132.412 314.748 132.256 314.547 131.95 314.548L131.912 314.549C131.895 314.549 131.879 314.55 131.862 314.551C132.011 314.452 132.139 314.323 132.234 314.171C147.669 312.475 163.199 311.321 178.538 308.917ZM163.448 290.035C167.155 290.678 170.939 291.018 174.682 290.433C174.935 293.528 176.134 296.534 177.077 299.495C171.905 300.86 168.482 295.129 163.856 294.037C164.118 292.668 164.025 291.229 163.448 290.035ZM201.659 287.669C201.647 287.691 201.64 287.716 201.642 287.747C201.66 291.353 202.026 294.946 202.558 298.515C199.272 294.977 193.772 294.081 189.243 295.552L189.263 295.322C189.379 294.015 189.553 292.678 189.34 291.383L189.547 291.325C191.884 290.681 197.377 289.389 201.659 287.669ZM133.972 151.678C154.207 157.105 175.747 157.446 196.193 152.958C195.174 156.225 194.408 159.552 193.867 162.923C192.707 171.596 189.514 179.791 187.362 188.24C184.88 198.212 184.289 206.609 185.524 216.795L185.562 217.104C188.282 239.946 199.421 260.798 204.654 282.974C198.495 286.709 190.888 288.168 183.826 289.713C179.388 280.567 175.638 271.188 173.181 261.34C164.328 230.429 152.663 201.324 155.254 168.689C155.832 168.31 155.644 167.511 155.326 167.001C155.436 164.646 155.588 162.294 155.836 159.953C155.845 159.873 155.712 159.858 155.696 159.934C155.285 161.94 154.853 163.94 154.493 165.955C152.005 163.425 150.396 160.264 148.208 157.519C147.897 159.568 152.162 167.507 154.038 168.735C150.04 193.276 156.698 215.741 163.89 239.081C168.73 255.839 173.432 272.647 178.425 289.359C178.365 289.359 178.304 289.361 178.244 289.363C178.544 288.81 172.189 289.191 171.667 288.914C166.987 288.471 162.407 287.364 157.855 286.252L157.296 286.108C156.162 285.811 154.845 285.382 154.641 284.171L154.638 284.018C154.637 283.973 154.635 283.937 154.631 283.933L154.664 283.797C154.671 283.766 154.676 283.741 154.675 283.734L154.72 283.666C154.772 283.591 154.821 283.525 154.752 283.601C155.266 283.04 155.312 282.172 154.719 281.635C153.607 240.815 140.45 203.454 135.578 163.09C135.095 159.279 134.505 155.483 133.972 151.678ZM214.575 159.582C216.915 162.485 217.317 166.538 216.395 170.077C215.91 171.834 214.931 173.312 213.921 174.819C212.151 177.33 211.325 180.247 210.875 183.237L210.862 183.294C210.656 184.255 210.529 186.907 209.17 186.608C208.813 186.379 208.642 185.371 208.517 184.845L206.948 178.428C206.494 176.57 206.222 174.362 204.613 173.076L204.423 172.955C203.108 172.111 201.826 171.131 201.62 169.485C201.167 167.468 202.009 165.515 202.324 163.555C206.52 162.596 210.616 161.242 214.575 159.582ZM125.525 151.291L125.665 151.36C127.279 152.164 132.094 154.764 133.336 153.765C133.306 159.709 133.783 165.623 134.481 171.519C134.303 171.48 134.118 171.484 133.954 171.545C130.453 170.576 126.649 163.964 126.355 160.566C126.116 157.473 126.731 154.247 125.525 151.291ZM183.082 60.1949L183.261 59.9592C185.156 57.4678 186.22 56.578 189.497 57.9073C189.056 58.452 188.849 59.1819 189.037 59.9377L189.049 59.9859C190.083 64.2356 195.388 66.6979 199.27 64.3857C200.626 64.7383 202.041 63.7643 202.095 62.3838C205.937 64.6428 207.712 68.7817 208.433 72.9386C205.911 71.6125 202.52 72.8782 201.513 75.5154C199.307 80.335 205.736 85.3488 209.657 81.2903C210.506 89.4198 210.905 97.6116 212.452 105.656C211.306 103.772 208.571 103.329 206.941 104.879C201.602 109.483 207.742 119.941 214.196 114.955C214.978 119.434 215.254 123.975 215.218 128.506C213.15 127.71 212.017 131.28 211.868 132.791C211.68 134.61 212.62 138.423 214.823 138.638L214.642 141.547C214.334 146.532 214.061 151.512 214.129 156.509C214.018 156.537 213.924 156.588 213.845 156.653C213.839 156.797 213.82 156.942 213.793 157.084C213.766 157.226 213.676 157.301 213.569 157.325L213.566 157.33C213.571 157.43 213.59 157.53 213.628 157.625C209.584 159.316 205.41 160.712 201.159 161.812C201.263 160.398 201.237 158.988 201.089 157.592C202.697 156.065 200.72 150.522 200.53 148.368C199.787 144.052 199.222 139.709 198.722 135.36C200.214 135.232 200.978 133.676 201.371 132.409C201.882 131.015 202.191 129.526 201.831 128.06C201.465 126.314 199.507 124.646 197.661 125.261L197.544 124.091C196.813 116.684 196.174 109.265 195.08 101.899C198.654 103.892 202.03 99.559 201.167 96.196C200.914 94.7683 200.044 93.3849 198.759 92.6433C197.623 91.9912 195.275 91.3452 194.53 92.7799C194.181 92.8245 193.855 92.9945 193.608 93.2454C192.835 89.2508 191.896 85.2254 190.401 81.4392C195.126 78.4751 194.242 71.0119 188.024 71.002C179.639 71.7193 181.869 83.9368 189.957 81.6392C192.497 96.9293 193.961 112.346 195.26 127.777C194.282 129.369 194.437 131.73 195.779 133.07C196.362 138.652 197.07 144.223 198 149.76C191.849 151.13 185.622 152.262 179.327 152.784C179.025 150.839 176.907 149.802 175.076 149.646C173.864 149.516 172.546 149.975 171.388 150.195C169.989 150.73 168.845 151.959 168.334 153.299C162.457 153.335 156.578 152.964 150.756 152.204C151.344 149.279 147.082 147.05 144.487 147.505C143.448 147.632 142.435 148.025 141.657 148.725C140.897 148.886 140.182 149.542 139.994 150.331C137.933 149.842 135.822 149.469 133.83 148.741C131.876 148.101 131.238 146.495 131.744 144.596C137.27 146.807 141.959 138.037 136.686 134.865C136.011 134.366 134.604 134.043 134.209 134.986C134.141 134.998 134.074 135.012 134.008 135.028C134.447 133.224 134.888 131.42 135.329 129.616C137.863 129.374 138.709 125.662 136.605 124.358C137.321 121.365 138.015 118.367 138.667 115.36C142.139 116.074 145.017 111.762 144.282 108.646L144.259 108.552C143.844 106.858 142.582 105.193 140.718 104.912C141.158 102.367 141.552 99.8133 141.883 97.2516C142.363 96.741 142.578 95.9799 142.391 95.3062C142.256 90.3818 143.256 85.3114 142.853 80.3167C146.537 84.788 154.214 81.7445 152.461 75.8445C152.563 70.3789 144.783 68.4418 142.159 73.2737C141.878 72.243 141.517 71.2175 141.34 70.1548C141.313 70.0328 141.125 70.0574 141.114 70.1719L141.113 70.185C140.722 77.1745 141.01 84.2096 140.258 91.1915C137.451 91.3293 136.304 98.0151 139.354 98.4951C138.201 106.268 136.468 113.94 134.585 121.575C131.313 120.736 130.048 127.758 132.742 128.938C131.958 132.042 131.178 135.146 130.416 138.255L130.402 138.249C130.006 137.57 128.952 137.646 128.274 137.775C126.035 138.599 126.982 142.644 129.419 142.397C128.09 146.392 128.933 150.099 133.369 151.472L133.367 151.599C133.229 151.492 133.062 151.405 132.86 151.348C130.088 150.571 127.499 149.364 125.11 147.799C125.813 136.263 129.158 125.08 131.865 113.89C134.976 113.395 135.968 108.42 133.541 106.588C135.221 99.1584 135.705 91.5612 136.527 84.0161C138.767 83.5285 139.333 79.9393 137.311 78.8399C138.592 69.4699 143.419 61.5717 152.423 57.555C152.715 58.8886 153.2 60.1835 153.848 61.3955C153.788 61.3989 153.729 61.4062 153.671 61.4158C153.656 61.4427 153.638 61.4693 153.613 61.4947C153.126 61.9928 152.813 62.5533 152.615 63.1532C152.596 63.2821 152.575 63.4109 152.553 63.5395C152.575 63.5922 152.599 63.6444 152.627 63.6955C151.662 67.3568 156.184 69.2284 159.237 68.4093C159.711 68.3165 160.02 68.0517 160.185 67.7169C165.591 70.6182 172.646 70.0068 177.515 66.1706C181.055 68.0575 185.612 63.651 183.082 60.1949ZM208.449 142.284C203.276 141.525 201.585 149.821 205.753 152.125C207.097 152.921 208.946 152.99 210.269 152.11C213.793 149.981 212.813 142.721 208.449 142.284ZM188.761 137.319C182.178 137.291 181.615 147.371 187.357 149.186C191.627 150.416 195.809 145.694 193.619 141.757C193.417 139.308 191.293 137.355 188.761 137.319ZM168.249 138.234C167.907 135.63 165.171 133.143 162.418 133.86C159.895 134.494 159.237 137.429 158.79 139.602C157.772 144.102 162.896 148.665 167.213 146.187C169.971 144.545 170.374 140.527 168.249 138.234ZM153.547 123.039C152.625 121.578 150.558 120.934 148.87 121.443C144.242 122.913 144.792 130.29 148.516 132.489C154.914 135.818 160.016 126.246 153.547 123.039ZM183.691 127.349C183.799 122.965 179.25 118.974 174.976 121.466C168.06 126.075 175.143 136.648 181.78 130.722C182.962 129.963 183.661 128.732 183.691 127.349ZM192.296 116.163C195.498 111.206 190 103.857 184.753 108.607C182.953 110.443 183.033 113.811 184.075 115.994C185.77 118.911 190.476 118.979 192.296 116.163ZM169.051 106.866C166.552 104.482 162.187 104.457 160.289 107.603C158.039 111.485 160.724 118.126 165.796 117.81C171.066 117.439 172.51 110.073 169.051 106.866ZM182.14 99.1156C186.149 95.0326 181.796 88.4831 176.36 90.0603C167.474 93.311 175.185 105.543 182.14 99.1156ZM160.257 98.1944C163.828 91.7184 155.154 85.8954 150.739 92.1288C147.354 97.7744 156.495 104.292 160.257 98.1944ZM171.904 79.7719C174.993 74.3741 169.594 68.3761 163.921 71.5442C155.849 77.118 166.182 87.8376 171.904 79.7719Z" fill="black"/>
<path fill-rule="evenodd" clip-rule="evenodd" d="M165.881 2.69531C159.275 2.69531 152.442 7.8096 150.02 11.0732C147.984 13.817 146.888 26.2246 146.888 34.6097C146.888 36.3634 145.919 39.6693 146.202 41.3468C147.238 47.4938 151.753 52.649 160.688 52.649C169.623 52.649 176.029 49.1117 182.671 39.6143C185.893 39.6143 187.455 37.1461 187.478 33.2512C187.493 30.6545 186.456 28.8839 184.367 27.9391C185.112 17.6917 184.546 11.234 182.671 8.56608C179.857 4.56417 172.487 2.69531 165.881 2.69531Z" fill="white"/>
<path fill-rule="evenodd" clip-rule="evenodd" d="M168.661 0.52265C164.49 0.100836 160.403 0.455253 156.293 1.18861C155.978 1.24543 155.8 1.45122 155.734 1.69862C153.798 1.78693 151.86 1.92881 149.926 2.03456C149.225 2.0729 148.827 2.76535 149.147 3.39064C149.211 3.51486 149.277 3.63571 149.344 3.75656L149.26 3.72864C148.678 3.54227 148.05 3.45039 147.483 3.74622C146.762 4.12271 146.479 4.95344 146.638 5.71805C146.679 5.91327 146.748 6.10036 146.825 6.28291C146.667 6.27245 146.508 6.27594 146.35 6.29686C145.507 6.40841 144.881 7.05333 144.837 7.91207C144.772 9.20877 145.608 10.5243 146.594 11.4526C146.451 11.7467 146.396 12.093 146.456 12.444C146.574 13.1377 147.086 13.5531 147.679 13.8241C147.432 14.6086 147.315 15.4287 147.384 16.2669C147.407 16.5467 147.652 16.7778 147.91 16.8345C146.946 19.4856 146.458 22.3318 146.108 25.1052C145.857 27.0785 145.734 29.0632 145.719 31.0513C145.712 31.9489 145.727 32.8475 145.764 33.7452L145.78 34.0819C145.826 35.0523 145.828 36.0712 146.003 37.0312C145.407 38.0432 145.168 39.2995 145.066 40.4335C144.941 41.8372 145.14 43.2851 145.583 44.6204C147.256 49.6657 152.305 52.8497 157.377 53.6772C162.071 54.4429 167.504 53.4122 170.247 49.1533C170.29 49.0859 170.198 49.0302 170.145 49.0744C168.182 50.6686 165.905 51.3797 163.431 51.726C159.155 52.3234 154.347 51.31 150.915 48.6235C149.268 47.3337 148.08 45.4558 147.557 43.435C147.291 42.4021 147.199 41.3247 147.304 40.2616C147.411 39.1833 147.889 38.2629 148.19 37.2438C148.291 36.8998 148.184 36.5802 147.974 36.3526C147.915 35.5251 147.775 34.6908 147.721 33.8658C147.662 32.928 147.626 31.9902 147.613 31.0513C147.589 29.1038 147.67 27.1527 147.834 25.2134C148.134 21.6622 148.931 18.1971 149.399 14.6761C149.572 14.8312 149.82 14.8949 150.081 14.7594L150.108 14.7446L150.25 14.6634C150.258 14.6634 150.267 14.6646 150.275 14.6656C151.247 14.7599 152.254 14.6251 153.185 14.3356C154.159 14.0336 155.063 13.5688 155.87 12.9494C156.024 13.7267 156.088 14.5122 156.089 15.3047C156.09 15.7998 156.615 16.0567 157.031 15.8452C158.878 14.9085 160.642 13.8291 162.316 12.6159C162.511 13.6164 162.707 14.6168 162.903 15.6185C162.979 16.0044 163.471 16.1601 163.786 15.9765C165.041 15.2478 166.124 14.2939 167.006 13.1596C167.182 13.4959 167.358 13.8322 167.536 14.1677L167.804 14.6703C168.068 15.1641 168.422 15.7104 169 15.8683C169.612 16.0356 170.123 15.6395 170.328 15.0863C170.391 14.9144 170.449 14.7377 170.503 14.5599C171.024 15.7487 171.613 16.9108 172.278 18.0193C173.277 19.6821 174.475 21.1637 175.67 22.6836C176.033 23.145 176.654 22.7045 176.704 22.2561C176.733 21.9923 176.758 21.7273 176.779 21.4635C177.475 22.8667 178.201 24.2568 178.993 25.6066L178.88 26.0502C178.553 27.3607 178.282 28.6805 177.987 29.998C177.892 30.4231 178.118 31.0309 178.615 31.1032C179.209 31.1897 179.771 31.4929 180.38 31.2843C181.043 31.0568 181.175 30.484 181.488 29.9411C181.55 29.8329 181.623 29.7336 181.701 29.6392L181.721 29.665C181.77 29.729 181.886 29.6593 181.857 29.5861L181.823 29.5015C182.092 29.2162 182.414 28.9783 182.71 28.7223C183.414 28.6038 184.206 28.7335 184.69 29.019C185.794 29.6697 186.302 31.0106 186.312 32.2437C186.325 33.6869 185.877 35.3091 185.121 36.5431C184.788 37.0858 184.332 37.5761 183.729 37.8167C183.131 38.056 182.483 37.9817 181.875 38.207C181.472 38.3571 181.224 38.8033 181.467 39.2075C181.484 39.2355 181.502 39.261 181.52 39.2878L181.339 39.5277C181.214 39.6939 181.085 39.8718 180.964 40.057C180.654 40.4127 180.328 40.7555 180.013 41.1052C179.43 41.75 178.865 42.4125 178.291 43.0666C177.75 43.6838 177.178 44.2635 176.588 44.834C176.031 45.3745 175.335 45.8287 174.823 46.4052C174.325 46.9676 174.19 47.9494 175.009 48.2749C175.915 48.6359 176.718 47.7899 177.328 47.2259L177.353 47.2022C178.472 46.1744 179.482 44.9999 180.284 43.7067C181.078 44.2468 182.227 44.2984 183.018 43.7584C183.434 43.4742 183.754 42.9968 183.909 42.4773C184.055 42.5101 184.202 42.5293 184.344 42.5271C184.418 42.5696 184.491 42.611 184.566 42.6496C185.156 42.9562 185.88 42.8192 186.15 42.1672C186.396 41.5753 186.143 40.9031 185.921 40.3328L185.876 40.215C185.75 39.8898 185.612 39.5353 185.439 39.2018C185.919 38.8416 186.328 38.3941 186.675 37.8853C187.84 36.1713 188.421 33.6647 188.164 31.6196C188.01 30.3856 187.429 29.1074 186.479 28.2752L186.513 28.1846C186.78 27.5096 187.022 26.832 187.179 26.1186C187.363 25.2843 187.452 24.4198 187.534 23.5703C187.706 21.7762 187.659 19.9413 187.43 18.1541C187 14.7901 185.908 11.4876 183.971 8.6883C184.52 8.03164 184.955 7.25889 184.729 6.37006C184.625 5.96208 184.389 5.57524 184.033 5.34156C183.836 5.21269 183.602 5.19293 183.406 5.08603L183.347 5.05352C183.26 5.00318 183.326 5.00851 183.378 4.77461C183.581 3.84022 183.413 2.93745 182.383 2.62719C181.414 2.33552 180.497 2.95488 179.924 3.69276C178.423 2.6294 176.445 2.0729 174.705 1.59996C172.728 1.06415 170.699 0.729606 168.661 0.52265ZM184.873 31.8624C184.88 31.1013 184.157 30.6318 183.446 30.7563C182.969 30.8393 182.571 31.1238 182.197 31.418L182.014 31.5621C181.559 31.9191 181.036 32.3041 180.765 32.8096C180.367 33.5556 181.208 34.5595 181.993 34.0366C182.532 33.676 182.877 33.0983 183.231 32.5616L183.267 32.5062C183.428 32.2656 183.569 32.01 183.789 31.8171L183.836 31.7755C183.908 31.714 183.986 31.6578 184.079 31.6312C184.26 31.5795 184.593 31.6519 184.673 31.8661L184.68 31.888C184.709 31.9962 184.872 31.9728 184.873 31.8624Z" fill="black"/>
<path fill-rule="evenodd" clip-rule="evenodd" d="M158.488 43.5606C159.27 43.2419 159.968 42.7104 160.478 42.0313C160.655 41.7953 160.701 41.546 160.664 41.318C160.622 41.0616 160.47 40.8293 160.263 40.6734C160.056 40.5171 159.796 40.44 159.545 40.4793C159.326 40.5135 159.109 40.6328 158.937 40.8804L158.901 40.9299C158.598 41.3398 158.202 41.676 157.752 41.8928C157.318 42.1017 156.833 42.1992 156.33 42.1425C155.373 42.0345 154.714 41.5177 154.013 40.8159C153.926 40.7273 153.839 40.6359 153.752 40.5431C153.697 40.4589 153.62 40.4048 153.535 40.3764C153.441 40.3449 153.334 40.3467 153.236 40.3808C153.142 40.4136 153.057 40.4759 153.001 40.5588C152.947 40.6377 152.917 40.735 152.927 40.847C152.991 41.5743 153.371 42.2234 153.912 42.7331C154.513 43.2992 155.309 43.6908 156.059 43.8281C156.884 43.9794 157.726 43.871 158.488 43.5606ZM155.669 32.3402C154.79 32.8735 153.452 34.1173 154.397 35.4396C155.509 36.6055 157.111 35.2687 157.901 34.6641C158.632 34.1955 159.455 35.4006 158.776 35.9477C153.072 40.1653 150.757 32.4796 155.225 31.7131C155.717 31.6286 155.899 32.1752 155.669 32.3402ZM165.89 27.434C165.793 26.2306 163.958 25.9573 163.775 27.1482C163.612 28.2149 163.804 29.1948 164.285 30.1552C164.745 31.0728 165.901 30.6447 165.988 29.8092C166.105 28.6893 165.951 28.1826 165.89 27.434ZM151.921 26.9012C151.665 26.5666 151.296 26.3381 150.853 26.4672C149.471 26.8708 149.878 28.8315 150.364 29.7859C150.628 30.3041 151.481 30.4355 151.866 29.9792C152.494 29.2351 152.795 27.7489 151.996 27.0159C151.975 26.9781 151.951 26.9398 151.921 26.9012ZM164.305 22.1682L164.087 22.13C163.411 22.0133 162.571 21.9012 162.093 22.4437C161.839 22.7314 161.752 23.2662 162.093 23.5416C162.692 24.0262 163.355 23.8384 164.073 23.8794C164.665 23.9133 165.234 24.0112 165.804 24.174C167.055 24.5311 168.074 25.183 169.143 25.8988C169.283 25.9927 169.426 25.8136 169.359 25.6826C168.743 24.4761 167.547 23.485 166.35 22.8809C165.711 22.5584 165.012 22.2909 164.305 22.1682ZM153.182 21.6277L153.015 21.6619C151.195 22.0417 148.831 22.8005 147.97 24.5853C147.937 24.8376 147.972 24.8917 148 24.9271L148.009 24.9388C148.033 24.969 148.051 25.0106 148.161 25.045C148.191 25.0377 148.222 25.0301 148.253 25.0219C148.648 24.9186 148.96 24.7762 149.263 24.6284L149.591 24.467C149.971 24.2807 150.355 24.1011 150.762 23.9686C151.63 23.6857 152.523 23.4865 153.43 23.3801C153.626 23.3571 153.816 23.2908 153.965 23.1773C154.107 23.0695 154.215 22.9203 154.264 22.7219C154.328 22.4652 154.31 22.2709 154.172 22.0393C154.068 21.8654 153.92 21.7448 153.75 21.6756C153.576 21.6051 153.378 21.5884 153.182 21.6277Z" fill="black"/>
<path fill-rule="evenodd" clip-rule="evenodd" d="M166.035 44.2887C165.093 42.0847 163.037 40.4648 160.67 39.8726C158.932 39.4388 157.107 39.4526 155.335 39.6248C154.407 39.7144 153.411 39.7878 152.536 40.1321C151.789 40.4263 151.18 40.9823 150.723 41.6351C150.178 42.4085 149.807 43.2937 149.547 44.2011C149.51 44.3301 149.475 44.46 149.443 44.5907C149.556 45.2753 149.796 45.8579 150.431 46.2883C151.05 46.7086 151.79 46.8806 152.527 46.9416C152.599 46.907 152.669 46.8714 152.733 46.8348C153.881 46.1783 154.689 44.6267 156.139 44.8367C157.432 45.0242 158.284 46.6497 159.053 47.6028C161.522 47.8902 163.989 47.1492 165.998 45.739C166.1 45.2564 166.106 44.7697 166.035 44.2887ZM147.764 42.6167C147.962 42.0631 148.211 41.527 148.506 41.0219C149.481 39.3516 150.977 38.0207 152.754 37.2599C156.956 35.4627 162.394 36.7296 165.788 39.6772C166.947 40.6848 168.12 42.1655 168.474 43.7582C168.58 43.7792 168.68 43.8342 168.762 43.9117C171.214 42.3698 173.739 40.8863 175.715 38.7489C177.15 37.1959 178.148 35.3581 178.76 33.3385C178.81 33.1723 179.078 33.1966 179.07 33.3805C179.068 33.4236 179.065 33.4665 179.063 33.5095C179.088 33.4304 179.209 33.4711 179.219 33.5479C179.547 36.0012 179.959 38.6023 179.58 41.0684C179.353 42.54 178.684 43.6173 177.789 44.7805C176.831 46.0274 175.746 47.1872 174.636 48.2994C173.932 49.0054 173.196 49.8197 172.334 50.3373C171.331 50.9387 170.194 51.396 169.124 51.86C168.035 52.3335 166.93 52.7709 165.804 53.1501C163.554 53.9109 161.227 54.4367 158.861 54.667C156.966 54.8508 154.8 55.051 152.984 54.3389C151.592 53.7934 150.468 52.807 149.577 51.6204C148.607 50.328 147.84 48.8559 147.416 47.3035C146.975 45.691 147.672 42.8767 147.764 42.6167Z" fill="black"/>
<path fill-rule="evenodd" clip-rule="evenodd" d="M83.1083 204.388C83.2313 208.839 83.9534 213.274 84.4966 217.699C84.9311 222.072 85.7508 226.487 86.409 230.779C86.4354 231.529 87.4715 231.894 87.9721 231.336C87.9591 221.578 85.3417 211.565 86.2688 201.603C85.5215 201.187 84.7607 200.727 84.0348 200.268C83.0558 201.555 82.9476 203.04 83.1083 204.388ZM121.779 146.856C122.899 150.909 125.271 154.402 126.31 158.461L127.407 158.352C127.947 149.399 126.43 140.604 124.657 131.952L123.555 132.017C123.165 137.003 120.609 141.725 121.779 146.856ZM0.991249 113.881C1.05087 113.714 1.11138 113.544 1.16811 113.372L1.81036 113.508C0.613901 111.249 1.72967 110.505 3.08348 108.637L3.23092 108.977L3.75181 107.842C3.85523 107.554 3.96088 107.309 4.24651 107.201C4.52556 105.789 5.35616 104.496 6.46234 103.794L6.67419 104.031C7.1126 103.649 7.64107 103.503 8.14423 103.327C7.06424 101.701 6.3695 99.5927 5.64122 97.8501C5.04823 96.0199 4.12114 94.2437 3.94695 92.3878C4.08715 90.6042 5.77818 91.7628 6.60297 92.6524C9.12237 94.8547 11.2922 98.3428 12.9181 102.579C15.7103 101.855 17.3121 102.619 18.0878 106.422C18.8018 109.005 19.5316 111.655 19.628 114.333C20.0029 114.205 20.6679 113.723 21.0272 114.101C27.2329 120.869 34.5603 126.084 41.6466 131.79C47.0018 127.864 49.7886 120.095 52.7338 114.263C57.8718 104.253 63.0098 89.5987 76.2257 89.6503C77.9771 89.4683 79.6877 89.2596 81.341 88.7526C81.9813 88.5792 82.7727 88.3704 82.9901 87.9827C83.3817 86.7343 83.4559 85.3833 84.1444 84.2384C86.0337 81.1772 90.127 80.9366 93.3346 81.6012C98.7805 82.6072 98.6434 82.02 99.0366 87.7293C99.1545 89.0846 100.208 89.2787 101.334 89.5594C102.611 89.9609 103.912 90.2889 105.225 90.5532C105.089 90.515 104.953 90.4773 104.816 90.4389C126.13 90.7755 140.282 115.419 143.089 132.854C146.35 150.692 142.133 170.543 135.465 185.524C135.751 190.98 134.678 196.46 133.998 201.838C133.571 203.183 132.094 203.314 131.671 201.756L131.151 199.705L130.593 201.746C130.24 203.01 129.672 203.16 129.161 203.168C128.527 203.168 128.18 202.857 128.159 201.214L127.109 200.963C126.704 201.731 126.303 202.41 125.667 202.883C124.389 212.145 123.586 221.776 120.484 230.739C119.246 234.065 117.346 237.085 115.951 240.348C122.53 255.15 123.633 271.552 125.213 287.401C125.086 287.411 124.433 287.468 124.293 287.48L124.654 288.434C125.146 288.641 125.435 289.079 125.584 289.562C125.916 289.535 127.3 289.545 127.223 289.862C127.063 291.724 126.539 293.052 125.547 294.022C125.533 294.32 125.515 294.625 125.492 294.907C127.461 301.756 128.903 309.056 129.78 316.584C130.895 317.653 131.174 321.169 129.511 322.107C124.922 325.256 118.758 326.752 112.954 326.184C106.673 325.592 99.1814 323.097 102.187 315.956C102.226 315.735 102.531 315.724 102.772 315.773C103.304 315.258 103.882 314.868 104.506 314.65C105.747 311.561 106.863 308.322 107.836 305.089C108.31 303.604 108.8 302.069 108.76 300.44C108.525 296.441 108.112 294.789 105.324 291.639C103.598 292.466 100.309 286.476 99.5555 285.219C97.9699 281.499 95.9491 278.118 94.2559 274.469C93.9943 273.853 93.0802 273.84 92.7226 274.374C92.5616 274.599 92.5214 274.877 92.612 275.137C94.0866 279.378 96.0944 283.427 98.0312 287.383C97.3713 289.681 97.1107 293.519 95.4602 295.229C94.5624 301.183 100.706 303.91 96.7472 310.513C98.0869 310.604 98.2119 311.138 98.1885 312.76C98.1929 313.924 98.2233 315.146 98.003 316.234C97.7359 317.572 96.4976 317.93 94.639 318.325C93.1327 318.657 91.6824 319.036 90.1876 319.394C88.6759 319.895 87.0832 319.854 86.4616 318.33C78.9755 320.859 57.3949 320.57 50.2572 317.219C48.2861 316.432 46.8958 315.988 48.706 313.774C49.7025 307.455 65.9716 311.973 68.2696 305.042C68.5975 304.143 69.0712 303.669 69.9931 303.505C69.8526 302.791 70.0401 301.996 70.8386 301.79C71.0789 301.719 71.335 301.7 71.5824 301.474C72.1967 300.213 73.2041 299.449 74.3777 298.778C73.8984 298.091 74.2858 297.77 74.5015 297.001C74.7204 295.53 74.2174 294.12 74.2431 292.69C73.9734 292.239 73.7651 291.607 73.3335 291.294C72.9335 291.013 73.1823 290.891 73.3381 290.581C73.2191 290.476 72.9499 290.237 72.8283 290.142C72.3608 289.629 72.8508 288.882 73.4503 288.825C73.5241 288.578 73.6117 288.291 73.6677 288.046C72.0101 283.08 70.0542 276.632 69.4048 269.8C68.7764 258.872 69.3658 249.66 66.0249 238.554C61.3549 220.97 52.2827 204.469 52.1602 185.861C52.3161 182.777 51.4581 179.492 52.236 176.465L51.2699 175.965C51.1308 176.124 50.8795 176.12 50.8293 175.903C50.1956 174.878 50.906 173.648 51.0518 172.526C50.7201 172.172 50.8857 171.85 51.2859 171.657C55.5774 156.56 62.7553 154.354 60.7794 135.483C57.5554 142.291 50.4136 149.182 42.5413 148.169C34.611 149.35 16.1116 130.098 12.5388 123.874C11.8839 123.925 11.8759 123.457 11.7763 123.017C8.513 123.399 5.45857 120.846 5.39772 117.724C2.53419 119.493 -0.526051 116.966 0.991249 113.881Z" fill="#FF7E90"/>
<path fill-rule="evenodd" clip-rule="evenodd" d="M23.8155 134.362L24.1229 134.635C29.1499 139.089 34.4824 143.535 40.7759 146.052C41.6285 146.361 42.517 146.445 43.3927 146.629C50.7127 146.701 55.6834 141.054 60.3187 136.185C59.9305 127.852 60.2515 119.249 63.5564 111.462L63.6354 111.261C64.4439 109.225 65.4323 107.205 67.0131 105.649C67.0521 105.611 67.1056 105.668 67.0722 105.708C65.7232 107.354 64.9378 109.365 64.3737 111.393L64.3452 111.496C62.4217 118.365 62.0873 125.573 62.3403 132.668L62.3481 132.883C62.5209 137.677 62.9365 142.497 62.357 147.281C61.9344 152.219 59.7409 156.684 57.352 160.948C55.2696 164.887 53.7132 169.097 52.7696 173.449C53.073 174.733 54.1723 175.674 55.3149 176.389C57.38 177.66 59.7727 178.355 62.1096 178.937C71.6718 181.382 81.6314 182.516 91.4694 181.333C101.965 179.976 112.209 177.167 122.374 174.308C123.419 173.989 124.579 173.7 125.578 173.203C125.645 173.13 125.724 173.067 125.809 173.017C125.982 170.588 126.211 168.18 126.381 165.758C126.151 161.065 124.842 156.501 122.836 152.262C119.171 145.314 120.381 141.088 122.616 134.009C123.129 132.207 123.496 130.322 123.45 128.465C123.216 127.295 122.99 126.125 122.782 124.95C122.695 124.725 122.6 124.502 122.494 124.281C122.474 124.239 122.531 124.205 122.558 124.244C122.604 124.311 122.649 124.378 122.694 124.447C122.539 123.551 122.395 122.654 122.269 121.755C122.252 121.636 122.406 121.59 122.451 121.705C126.467 132.463 128.799 143.995 128.703 155.491C128.646 158.876 128.412 162.26 128.162 165.637L128.185 165.962C128.274 167.24 128.32 168.543 127.871 169.76C127.776 171.849 127.42 173.913 127.53 176.008C127.789 177.92 128.369 179.274 129.812 180.597C131.24 182.041 132.875 183.237 134.738 184.066C142.483 161.523 147.021 138.107 135.821 115.816C130.623 104.963 121.675 95.2127 109.666 92.1115C111.377 93.9938 110.043 96.8095 108.813 98.6041L108.737 98.7127C102.844 107.404 89.867 109.474 80.1346 107.584C75.4199 106.779 70.9991 103.741 70.6229 98.6605C70.3307 95.2579 72.2768 91.9018 75.2187 90.2255L74.8604 90.2645C71.9972 90.5812 69.2165 91.0383 67.0187 93.0773C58.9185 100.537 55.1607 111.16 50.3759 120.777L50.1855 121.127C48.1361 124.91 46.1558 128.995 42.7508 131.738L43.3872 132.278C43.4674 132.347 43.3816 132.502 43.2802 132.461C42.9525 132.329 42.6271 132.19 42.3028 132.05C41.8454 132.415 41.32 132.045 41.2653 131.582C33.5656 127.913 27.0579 122.095 21.0172 116.193C19.492 119.708 16.92 123.542 12.8027 124.117C16.6898 127.291 20.1301 130.961 23.8155 134.362ZM85.7054 201.764C85.2057 201.481 84.7123 201.187 84.2254 200.882C83.4218 202.162 83.6262 203.286 83.7127 204.7C83.8965 207.058 83.8556 209.456 84.3358 211.777C85.1682 217.699 85.6608 223.887 86.8972 229.659C86.9247 229.981 86.9535 230.303 86.9786 230.626C87.0119 231.051 87.6806 231.053 87.6473 230.626C86.8332 221.046 85.1053 211.41 85.7054 201.764ZM81.1731 317.169C74.9001 318.206 68.4967 317.471 62.2211 316.804L61.2999 316.685C58.3295 316.301 55.3417 315.897 52.4241 315.253C52.1783 315.05 51.7995 314.961 51.6518 314.661L51.4717 314.674C51.3196 314.588 51.1645 314.507 51.0069 314.432C50.5486 314.35 50.1751 314.251 49.7018 314.121C49.0595 314.339 48.9927 314.901 49.4285 315.299C49.3849 315.502 49.629 315.618 49.7885 315.708C49.814 315.759 49.8538 315.808 49.9134 315.849C50.1995 316.029 50.4885 316.244 50.8161 316.333C51.6166 317.162 53.3359 317.477 54.283 317.645L54.3766 317.661C62.2467 319.063 70.2982 319.44 78.2678 318.807C79.6418 318.697 81.0149 318.557 82.3827 318.387L82.7556 318.34C83.9369 318.188 85.2397 318.129 86.1479 317.269C86.6002 316.841 87.5065 317.111 87.4811 317.791L87.4797 317.818C87.4003 318.935 90.0252 318.011 90.5449 317.866L90.56 317.862C92.0132 317.469 93.4575 317.036 94.9152 316.662L95.2727 316.593C96.539 316.343 96.6374 316.216 96.6515 314.654L96.6986 314.23C96.7622 313.664 96.8305 313.1 96.9223 312.538L96.9579 312.327C96.9992 312.091 97.4026 310.63 96.7306 310.824C96.6459 310.848 96.5634 310.781 96.559 310.699C91.8371 313.692 86.7274 316.197 81.1731 317.169ZM106.113 320.937L105.712 320.697C105.041 320.293 104.367 319.854 103.891 319.24C103.105 319.27 102.782 318.533 102.812 317.876C102.153 320.012 102.97 321.72 104.903 322.801C111.635 326.358 120.247 325.835 126.948 322.452C127.591 322.122 128.22 321.764 128.83 321.377L128.967 321.29C129.195 321.144 129.417 320.987 129.538 320.737C129.832 319.881 129.828 319.038 129.859 318.084C129.352 318.765 128.509 319.238 127.809 319.707C126.473 320.597 125.025 321.303 123.524 321.87C117.965 323.926 111.363 323.8 106.113 320.937ZM126.473 145.608C125.936 140.969 125.016 136.394 124.124 131.813C123.762 136.736 121.196 141.53 122.337 146.509C123.453 150.518 125.843 154.074 126.865 158.118C127.063 153.942 126.941 149.763 126.473 145.608ZM119.857 185.861C120.461 185.971 121.082 185.968 121.693 185.925C124.168 185.627 124.56 187.119 124.551 189.206C124.626 190.555 124.709 191.904 124.78 193.253L124.821 194.063C124.872 195.142 125.008 196.348 124.872 197.476C125.321 198.5 125.563 199.567 125.635 200.687C125.841 200.631 126.061 200.658 126.22 200.765C127.128 199.153 127.345 197.185 127.532 195.37C127.624 194.478 128.941 194.437 128.961 195.37C128.987 196.64 129.006 197.91 129.028 199.18L129.063 201.139L129.062 201.168C129.057 201.447 128.93 202.152 129.275 202.125L129.294 202.122C129.935 202.075 129.965 199.803 130.104 199.236L130.638 195.437C130.758 194.587 131.986 194.864 132.07 195.606L132.073 195.63C132.223 197.366 132.375 199.103 132.504 200.841C132.545 201.141 132.55 201.685 132.879 201.816C133.17 201.556 133.226 201.118 133.287 200.754C133.835 195.74 134.864 190.791 135.498 185.789C135.087 185.73 134.71 185.475 134.59 185.083C131.29 184.411 127.826 182.561 126.168 179.555C125.837 179.845 125.579 180.225 125.258 180.524C124.751 180.997 124.194 181.424 123.661 181.866C122.168 183.125 120.669 184.314 119.206 185.611C119.42 185.681 119.615 185.818 119.857 185.861ZM83.9503 83.224C83.9336 83.1586 83.8422 83.1774 83.8377 83.2395C83.7463 84.5036 83.4421 85.8372 82.9785 87.0768C82.8125 87.1034 82.6531 87.1965 82.5372 87.3774C82.3812 87.6202 81.6348 87.7896 81.2454 87.9038L81.1898 87.9205C79.5734 88.4177 77.8862 88.6183 76.2095 88.7956C68.3239 89.2299 65.4539 91.6913 61.0053 97.9101C55.7247 104.916 52.7618 113.231 48.781 120.963C47.8014 122.844 46.7438 124.68 45.5815 126.455L45.4706 126.623C44.4324 128.197 43.2837 129.791 41.6977 130.853C37.8597 127.648 33.7555 124.787 29.9589 121.533L29.6039 121.226C26.7554 118.774 24.0351 116.175 21.4462 113.452C21.1409 113.13 20.5681 113.046 20.1446 113.235C19.9791 110.784 19.2841 108.38 18.6433 106.011C17.9705 102.961 16.8018 100.899 13.2763 101.654C11.8572 98.0953 9.95693 94.6221 7.07988 92.0237L6.89522 91.8581C6.28272 91.3041 5.47872 90.5097 4.6183 90.5814C3.83708 90.6457 3.43588 91.3499 3.40468 92.066C3.36892 92.9155 3.74085 93.7805 4.00732 94.5768L4.02989 94.6449C4.37314 95.6904 4.74313 96.7271 5.13429 97.7559C5.51097 98.746 5.91439 99.7261 6.33676 100.697C6.76727 101.51 7.08388 102.855 7.868 103.346C8.27276 103.586 8.68966 103.263 8.73279 102.852C8.79408 102.312 8.48204 101.837 8.25247 101.367C8.04073 100.935 7.83344 100.5 7.63173 100.063C6.82109 98.3045 6.0937 96.5094 5.46861 94.6781C5.28295 94.0617 4.52292 92.4593 4.78659 91.9053C5.0506 91.9075 5.59411 92.4629 5.78624 92.6281C8.80858 95.1213 10.7729 98.5663 13.02 101.71C11.6098 102.111 10.0791 102.299 8.90776 103.242C6.49858 105.335 8.43323 109.481 11.6626 108.709C10.7613 110.616 9.98608 113.698 11.5835 115.421C12.0638 115.869 12.9966 115.726 13.1426 115.012C13.2986 114.254 13.1114 113.604 12.9398 112.869C12.6288 111.372 12.4403 109.84 12.6523 108.316L12.7189 108.277C13.2663 107.946 13.6105 107.575 13.5939 106.891C13.6653 106.396 13.1359 105.73 12.6043 106.134C12.4316 106.265 12.221 106.275 12.0393 106.407C11.7312 106.699 11.3484 106.929 10.9116 106.925L10.8692 106.924C10.3075 106.919 9.89291 106.582 9.72128 106.059C9.25099 104.623 10.8792 104.141 11.9379 103.865L12.2114 103.781C15.1012 102.901 16.1486 102.887 16.8748 106.269C17.6613 108.792 18.3545 111.389 19.6843 113.695L19.5189 114.088C18.1819 117.26 16.5034 120.91 12.9086 121.883C12.7813 120.823 11.6307 120.785 10.7978 120.812C9.72285 120.754 8.64397 120.211 7.8847 119.43C7.22139 118.765 6.88773 117.838 6.15399 117.245C6.48609 116.493 5.73608 115.664 4.95264 116.096C4.4244 116.387 4.10567 116.801 3.46822 116.886C2.9032 116.961 2.38275 116.765 1.95369 116.404C0.833685 115.462 1.36639 114.077 1.09224 112.843C1.45332 113.465 2.05288 113.942 2.69479 114.271C6.98112 116.713 6.93811 111.926 4.56927 112.712C1.99605 112.129 2.0395 111.203 3.00125 109.029L3.0184 108.978C3.1748 108.522 3.52426 107.715 3.19963 107.223C3.1818 107.199 3.14949 107.191 3.12608 107.213C2.83187 107.501 2.71597 107.985 2.46756 108.324L2.17143 108.676C1.27192 109.756 0.330698 111.038 0.915039 112.479C0.852631 112.465 0.784663 112.492 0.763489 112.567C0.487109 113.568 -0.0623109 114.552 0.0513611 115.623C0.28907 117.97 2.84435 119.259 4.96043 118.28C5.36743 121.298 8.35568 123.47 11.3506 123.335C11.4453 123.749 11.7529 124.112 12.2288 124.15C16.6363 131.18 33.9622 149.267 42.4589 148.512C43.2713 148.879 44.3055 148.695 45.1658 148.584C51.7646 147.727 57.2793 142.922 60.3555 137.226C61.4863 155.882 55.0963 155.656 50.8204 171.112C50.3925 171.379 50.1429 171.962 50.475 172.455C50.2914 173.391 49.9157 174.349 50.0604 175.308C50.1317 175.582 50.2755 175.831 50.4059 176.082C50.6742 176.593 51.3818 176.532 51.7131 176.134C51.1512 178.158 51.3908 180.283 51.5348 182.346C51.6228 183.558 51.6161 184.753 51.6174 185.966C51.785 204.431 60.8439 221.079 65.5009 238.597C66.8181 243.507 67.83 248.511 68.2279 253.583C68.6502 258.979 68.356 264.405 68.8642 269.795C69.4532 276.037 71.1276 282.104 73.1027 288.037C72.9845 288.518 72.7391 289.065 72.8907 289.479C75.7122 289.952 78.4353 290.813 81.1754 291.613C81.2828 291.643 81.3496 291.71 81.3834 291.789L82.0097 291.996C82.416 292.131 82.242 292.773 81.8321 292.637L81.1474 292.411C78.8057 291.639 76.4369 290.902 74.0015 290.556L73.9267 290.526C73.4398 290.332 72.8669 290.19 72.6103 290.724C72.4801 290.995 72.5832 291.267 72.7692 291.482C72.9263 291.663 73.1262 291.774 73.2637 291.979C73.4173 292.249 73.5475 292.533 73.7001 292.807C73.6986 294.162 74.1465 295.504 73.9728 296.856C73.842 297.417 73.3852 297.955 73.6752 298.556L73.5432 298.64C72.7748 299.131 72.0405 299.67 71.5355 300.43C71.4252 300.596 71.3416 300.939 71.2157 301.056C71.0842 301.178 70.839 301.193 70.6774 301.25C69.8591 301.498 69.3442 302.233 69.4147 303.087C67.4985 303.636 68.1584 305.574 66.1807 306.922C64.1502 308.387 61.4009 308.548 59.0026 308.928L54.916 309.577L54.6783 309.605C52.0917 309.923 48.7181 310.521 48.1976 313.529L48.1559 313.578C47.5308 314.321 46.9297 315.731 47.7014 316.538C48.3287 317.092 49.1853 317.352 49.945 317.675C50.9984 318.433 52.5165 318.786 53.6723 318.999C63.6641 320.841 73.9571 321.055 84.016 319.626L84.1842 319.601C84.8872 319.497 85.6131 319.355 86.2549 319.055C87.1525 320.559 88.8809 320.37 90.336 319.943C91.4783 319.662 92.6206 319.384 93.7629 319.107L93.8699 319.079C95.6343 318.628 98.1365 318.491 98.5638 316.349C98.7845 315.246 98.77 314.018 98.7589 312.897L98.7614 312.529C98.7629 311.585 98.6882 310.305 97.6143 310.105C99.1061 307.354 98.781 303.971 97.3916 301.243L97.3179 301.11C96.2954 299.243 95.6567 297.684 95.9962 295.479C96.6771 294.841 96.9947 293.924 97.2466 293.022C97.7757 291.125 98.2379 289.207 98.629 287.277L98.0222 286.036C96.2426 282.395 94.4825 278.738 93.1529 274.907C93.0307 274.555 93.6047 274.307 93.764 274.651C95.4453 278.283 97.5013 281.735 99.0667 285.422C100.105 287.35 101.351 289.163 102.748 290.851L102.809 290.937C103.352 291.677 103.806 291.924 104.697 292.229C104.839 292.288 104.984 292.29 105.12 292.251C105.97 293.398 107.002 294.306 107.448 295.676C107.935 297.19 108.121 298.855 108.217 300.439C108.268 302.501 107.405 304.449 106.863 306.408C106.034 309.047 105.111 311.657 104.09 314.229C103.544 314.449 103.049 314.786 102.593 315.203C102.212 315.166 101.811 315.338 101.669 315.8L101.61 315.993C101.107 317.654 100.68 319.572 101.333 321.236C103.138 325.267 108.939 326.272 112.908 326.755C118.784 327.31 124.948 325.912 129.84 322.578C130.531 322.096 131.003 321.547 131.118 320.693L131.13 320.586C131.288 319.156 131.324 317.46 130.327 316.352C129.475 309.101 128.079 301.852 126.069 294.828C126.085 294.63 126.097 294.432 126.107 294.232C127.229 293.069 127.668 291.431 127.794 289.858C127.809 289.197 127.137 289.059 126.617 288.979L126.425 288.977C124.728 288.965 122.976 289.048 121.462 289.679L121.537 289.682C121.613 289.685 121.693 289.694 121.751 289.734C120.993 289.976 120.165 290.084 119.44 290.402C118.903 290.428 118.434 290.682 117.89 290.728L117.804 290.733C117.707 290.742 117.634 290.713 117.581 290.666C116.119 290.925 114.666 291.274 113.207 291.488C112.786 291.549 112.604 290.909 113.029 290.846C114.981 290.561 116.924 290.036 118.89 289.794C119.325 289.626 119.745 289.41 120.18 289.237C120.206 289.179 120.254 289.128 120.331 289.092C120.809 288.868 121.306 288.685 121.813 288.531C123.115 288.129 124.482 287.96 125.838 287.88L125.742 286.915C124.182 271.139 123.044 254.941 116.573 240.25C117.948 237.087 119.818 234.074 121.021 230.82C121.52 229.52 121.823 228.194 122.219 226.867C122.476 226.231 122.689 225.587 122.792 224.905C124.376 217.687 125.272 210.344 126.206 203.023C126.836 202.505 127.251 201.758 127.616 201.071L127.618 201.176C127.639 202.306 127.799 203.608 129.229 203.575C130.382 203.547 130.887 202.69 131.145 201.742C131.648 203.724 133.88 203.833 134.534 201.881C134.826 201.094 134.814 200.195 134.901 199.369C135.367 194.836 136.341 190.306 136.061 185.741C136.355 185.641 136.612 185.417 136.737 185.044C142.309 168.232 147.268 150.24 143.651 132.501C140.034 115.12 130.238 95.6629 111.726 90.7344C107.979 89.7913 104.172 89.4712 100.33 89.2277C99.7759 88.1596 99.4176 86.9445 99.3451 85.7352C99.3228 85.386 99.3395 85.0402 99.3406 84.6908C99.3417 84.3682 99.2035 83.9835 99.2682 83.682C99.2838 83.6087 99.1835 83.5843 99.1567 83.652C99.0754 83.8637 98.9093 83.9702 98.7968 84.1487C98.5168 84.6533 98.4427 85.2523 98.3688 85.8162C98.0911 88.0174 98.7228 90.2822 100.06 92.0496L100.106 92.1103C100.521 92.6626 101.31 93.6625 102.126 93.1836C102.836 92.7652 102.381 91.9132 101.957 91.4568L101.925 91.4229C101.351 90.8287 100.87 90.1934 100.478 89.5004C102.217 89.9618 103.941 90.4698 105.674 90.9506L105.756 90.9956C107.113 91.7317 109.13 92.5197 108.952 94.3446C105.343 105.191 89.3783 107.978 79.5115 105.388L79.3542 105.346C77.4664 104.827 75.5759 103.994 74.2913 102.475L74.2381 102.411C71.9574 99.722 72.1322 95.2787 74.988 93.0705C76.6842 91.6868 79.0278 90.9517 81.1441 90.4729C80.5286 91.4907 79.1674 92.2095 78.9197 93.4153C78.8562 93.8289 79.0858 94.2224 79.5438 94.2313C80.7073 94.2535 81.5654 93.0162 82.1761 92.1846C83.4506 90.4451 84.1736 88.3421 84.3281 86.1998C84.405 85.1576 84.2122 84.2185 83.9503 83.224ZM6.96753 102.792C7.02927 102.75 6.99518 102.625 6.91182 102.659C3.74906 103.964 2.45797 108.64 4.83896 111.215C5.62909 112.045 6.81375 112.525 7.89252 112.089C9.21836 111.866 9.99289 110.533 10.1626 109.304C10.1742 109.247 10.1097 109.221 10.0732 109.257L10.0668 109.264C9.56582 109.88 8.77613 110.291 8.05632 110.606C7.85461 110.497 7.63396 110.411 7.41219 110.36C7.0968 110.289 6.77362 110.535 6.80371 110.855C5.31493 110.584 4.71819 108.82 4.67299 107.481L4.6718 107.44C4.61162 105.588 5.45302 103.875 6.96753 102.792Z" fill="#232323"/>
<path fill-rule="evenodd" clip-rule="evenodd" d="M71.1635 60.0941C71.4283 56.6855 71.018 53.1128 72.339 49.8729C74.6423 44.4973 81.1011 42.705 86.1084 40.6584C88.1144 40.0687 94.8643 39.9863 97.2131 39.2058C102.529 37.4394 103.799 35.3348 108.023 38.6981C108.736 39.2726 109.182 39.897 109.508 40.7502L109.494 40.7539C109.587 41.1095 109.488 41.4644 109.278 41.7355C111.11 43.5979 111.876 46.3901 110.936 48.8693C107.87 55.3208 108.014 58.8091 109.002 65.7448C110.292 72.2197 107.344 74.5849 102.461 78.1079C102.66 78.4914 102.701 79.0011 102.442 79.3395C96.7951 87.2334 86.1486 91.0024 77.0267 86.9958C73.324 85.3562 71.6709 81.4332 70.7275 77.8934C69.6286 73.9299 69.2909 69.7534 70.1856 65.7159C70.5464 63.8486 71.0165 61.9948 71.1635 60.0941Z" fill="white"/>
<path fill-rule="evenodd" clip-rule="evenodd" d="M103.734 22.3293C103.048 22.2269 102.531 22.6499 102.284 23.2462L102.271 23.2783C102.192 23.4812 102.104 23.6786 102.01 23.8726C100.294 23.0355 97.8472 23.2506 96.7617 24.9458C95.9872 26.1565 96.4597 27.5934 96.7517 28.8773L96.9434 29.7233C96.5729 29.9579 96.2934 30.3779 96.3066 30.8129L96.3082 30.8464L96.3862 32.0261C96.1388 31.7766 95.9125 31.505 95.7108 31.2156C95.5715 30.9617 95.4211 30.7122 95.2595 30.4705C94.3089 29.0481 92.1747 30.2843 92.9593 31.8077C93.1097 32.1015 93.2791 32.3798 93.4608 32.6481C93.6658 33.0439 93.8341 33.4508 93.9634 33.8688C93.5923 34.0295 93.307 34.3865 93.2769 34.9254C93.2067 36.1837 93.8709 37.2337 94.9274 37.8934C95.2383 38.0874 95.5593 38.1251 95.8501 38.053C95.9014 38.1218 95.9526 38.1905 96.0017 38.2604C95.5804 38.6007 95.2004 38.9888 94.8739 39.419C93.8909 39.2726 92.9024 39.2039 91.9139 39.2017C90.7059 38.6129 89.2594 38.6251 87.9611 38.8458C87.1252 38.9877 86.3228 39.2637 85.5004 39.4622C84.6334 39.6706 83.753 39.6784 82.8759 39.8203C81.7704 39.9988 80.8008 40.5066 80.1912 41.3171C79.5215 41.337 78.8171 41.6098 78.2332 41.9801C76.8736 42.8427 75.5218 43.7174 74.1655 44.5856C73.645 44.9188 73.4504 45.4509 73.5461 46.0444L73.5526 46.0823L73.5982 46.3285L73.4909 46.48C73.0759 47.0631 72.6243 47.6739 72.3557 48.3175C71.8586 49.0304 71.4095 49.7777 71.0117 50.5482C70.4756 51.5838 70.0332 52.6814 69.7334 53.8078C69.6587 54.0928 69.5841 54.3799 69.535 54.6704C69.4648 55.0806 69.5729 55.3988 69.632 55.7924C69.7055 56.2914 69.7323 56.7969 69.8103 57.297C69.8627 57.6285 70.1457 57.7914 70.4422 57.8003C70.3307 58.644 70.2505 59.4933 70.1736 60.3359C70.0655 61.54 69.9919 62.7474 69.9284 63.9548C69.6008 64.4282 68.931 64.8029 68.4473 64.9327C67.7776 65.1112 67.0755 64.9171 66.4425 64.6898C66.0446 64.5468 65.7181 65.0446 65.912 65.3772C66.5216 66.4217 67.8255 66.4172 68.8129 65.9549C69.2308 65.7598 69.5974 65.477 69.8694 65.1089C69.8526 65.4593 69.8348 65.8096 69.817 66.1611L69.8004 66.4795C69.5996 70.1972 69.1661 74.0428 69.8682 77.7239C71.0841 84.1001 76.3879 88.9551 82.867 89.3321C86.2669 89.5299 89.0982 88.5309 90.506 87.9736C91.9139 87.4162 91.3667 86.2799 90.3894 86.6047C88.7057 87.1643 85.6127 87.998 82.8447 87.638C76.3208 86.7895 70.7888 83.5455 71.3571 69.5737C71.4377 67.5924 71.6859 65.6101 71.7394 63.6288C71.7906 61.6919 71.7717 59.7539 71.8575 57.818L71.8861 57.1576C71.9196 56.3858 71.9554 55.6105 72.0135 54.8378C72.0837 54.5385 72.1417 54.2347 72.2275 53.9409C72.4604 53.1415 72.7647 52.3643 73.1424 51.6226C73.226 51.6858 73.3196 51.7312 73.4211 51.749C74.1911 51.8864 74.9133 51.8476 75.6343 51.5283C75.9709 51.3809 76.2673 51.1846 76.5437 50.9418C76.6752 50.8276 76.7632 50.7167 76.8323 50.6014C77.1811 50.607 77.53 50.5028 77.7484 50.2533C77.9975 49.969 78.039 49.6753 77.9414 49.4034L77.9312 49.3763L77.9557 49.3674C78.2499 50.1247 78.8361 50.791 79.4791 51.2412C80.4955 51.9552 81.767 52.1614 82.9862 52.1802C84.3325 52.2002 85.7522 51.994 87.0807 51.7833C87.4317 51.7279 87.7805 51.6647 88.1226 51.5793C88.136 51.5926 88.1494 51.6082 88.1639 51.6215C89.3039 52.7069 90.9076 52.9863 92.3541 52.3665C93.19 52.0084 93.8909 51.4319 94.5106 50.7711C94.5195 51.117 94.5373 51.4629 94.5674 51.8055L94.5799 51.9415C94.6416 52.5796 94.7603 53.2564 95.245 53.7169C96.0284 54.4631 97.1652 54.1637 98.069 53.6781C98.0678 53.7014 98.0678 53.7258 98.0678 53.7502C97.8238 54.5751 97.5786 55.4011 97.3334 56.227L97.2806 56.403C97.1023 56.9895 96.9068 57.5768 96.8531 58.1906C96.7506 59.3636 97.5351 60.5222 98.8457 60.1286C99.5332 59.9229 100.084 59.3478 100.612 58.8873L100.945 58.6008C100.084 61.4025 99.4865 64.304 99.4308 67.2277C99.4274 67.3862 99.5645 67.506 99.7161 67.5115C100.07 67.5259 100.452 67.4561 100.808 67.3153C100.828 67.3142 100.848 67.3131 100.87 67.3097C101.478 67.2221 102.043 67.0037 102.541 66.6811C102.426 67.0436 102.375 67.4328 102.405 67.8397C102.413 67.9384 102.568 67.9727 102.59 67.8641C102.878 66.4571 104.533 65.3939 105.959 65.6633C107.49 65.9527 108.618 67.2632 108.895 68.7544C109.191 70.3565 108.624 72.2091 107.573 73.4453C107.089 74.0152 106.453 74.4909 105.697 74.6106C105.352 74.6649 104.993 74.6461 104.657 74.5485C104.515 74.5064 104.381 74.4476 104.245 74.3922C104.047 74.3124 103.815 74.3002 103.628 74.2159C103.203 74.0263 102.776 74.4155 102.991 74.849C103.179 75.2271 103.347 75.4821 103.658 75.6772C103.406 75.9832 103.178 76.4089 103.093 76.5231C102.66 77.1041 102.221 77.6529 101.729 78.184C101.227 78.7228 100.68 79.2151 100.102 79.6708L99.8586 79.8619C99.3014 80.3015 98.8163 80.7088 98.4233 81.3394C98.1135 81.8372 98.5147 82.5124 99.0953 82.5046C100.912 82.4791 102.232 80.8915 103.173 79.5045C103.307 79.306 103.433 79.0965 103.55 78.8814C103.592 78.949 103.639 79.0122 103.691 79.0698L103.588 79.347C103.28 80.163 104.605 80.6963 104.99 79.9346C105.269 79.3825 105.594 78.857 105.955 78.3603C106.168 78.3303 106.376 78.2017 106.492 78.0354C106.785 77.613 107.114 77.1861 107.391 76.736C107.545 76.5908 107.703 76.4511 107.865 76.3147C107.912 76.3557 107.96 76.3967 108.005 76.44C108.208 76.9001 108.459 77.3203 108.77 77.7161L108.836 77.8006C109.432 78.5474 110.208 79.3118 111.168 79.4945C111.461 79.5499 111.743 79.1874 111.483 78.9557C110.811 78.3547 110.017 77.9456 109.397 77.2748C109.092 76.9444 108.812 76.5804 108.571 76.199L108.516 76.1107C108.476 76.0453 108.434 75.9799 108.392 75.9133C108.672 75.7238 108.951 75.5331 109.231 75.3424C110.001 75.9969 111.004 76.2962 111.856 76.8384L111.94 76.8934C112.71 77.4057 113.522 76.2726 112.904 75.6506C112.224 74.9675 111.656 74.1529 111.053 73.3937C111.336 72.8741 111.47 72.2598 111.521 71.6389C111.54 71.4632 111.556 71.2874 111.571 71.1115C112.004 71.1182 112.438 70.9707 112.806 70.7168L112.946 70.6181C113.392 70.76 113.862 70.8288 114.311 70.8166C115.367 70.7855 115.8 69.5848 115.139 68.8253C114.464 68.0492 113.284 67.8796 112.349 68.2566C112.319 68.2411 112.288 68.2244 112.258 68.2078C112.302 68.0038 112.293 67.8187 112.242 67.6562L112.257 67.5571C112.462 67.2432 112.597 66.8849 112.649 66.5063C112.689 66.2063 112.681 65.9091 112.611 65.613C112.588 65.5144 112.54 65.4123 112.503 65.3095C112.579 65.1186 112.624 64.9212 112.637 64.7228C112.659 64.6976 112.68 64.6718 112.7 64.6438C113.164 63.9958 113.07 63.2149 112.629 62.6905C112.627 62.6571 112.623 62.6238 112.619 62.5906C112.645 62.5327 112.668 62.4743 112.69 62.4152C113.121 61.9823 113.438 61.4613 113.379 60.8157C113.344 60.4358 113.188 60.0939 112.95 59.8383C112.992 59.7144 112.996 59.5708 112.945 59.451C113.324 58.448 113.276 57.2401 113.003 56.1184C113.064 55.9476 113.095 55.7625 113.088 55.5663C113.057 54.7336 112.333 53.9686 111.474 53.9786C111.371 53.9795 111.274 53.9929 111.181 54.0125L111.18 53.9927C111.147 53.7428 111.078 53.5118 110.977 53.3046C111.027 53.2867 111.073 53.2611 111.113 53.2271C111.663 53.5189 112.245 53.742 112.855 53.894C113.303 54.0057 113.763 53.4985 113.484 53.0796C113.355 52.8853 113.212 52.7108 113.058 52.5513C113.277 52.5526 113.499 52.5673 113.723 52.596C114.127 52.6481 114.577 52.3743 114.839 52.004C115.164 52.3188 115.491 52.6326 115.817 52.9464C116.644 53.7435 117.894 53.157 118.024 52.106C118.27 52.0405 118.5 51.9297 118.702 51.7711C120.005 52.3344 121.409 52.6437 122.843 52.7024C123.873 52.7446 124.474 51.5516 123.993 50.709C123.67 50.1435 123.269 49.6358 122.806 49.1945C123.524 49.4129 124.265 49.5703 125.022 49.6712C125.431 49.7256 126.009 49.3885 126.173 49.0149C126.799 47.578 126.746 46.0801 126.024 44.682C125.997 44.6266 125.965 44.5734 125.935 44.5202C125.861 44.335 125.779 44.1521 125.691 43.9724C126.578 43.0522 126.655 41.6841 126.177 40.5388C126.369 40.2294 126.442 39.8569 126.312 39.5199C125.941 38.5497 125.406 37.6539 124.731 36.8844C124.795 36.7603 124.852 36.6283 124.9 36.4864C125.28 35.3389 124.84 33.9541 123.952 33.1547C123.393 32.6514 122.751 32.3498 122.066 32.1569C121.777 31.6491 121.406 31.1912 120.974 30.8054C120.957 30.7688 120.94 30.7322 120.922 30.6956C120.248 29.4339 119.023 28.7576 117.709 28.6013C117.657 28.1079 117.323 27.6367 116.837 27.4837C116.703 27.0568 116.504 26.6488 116.23 26.2785C115.798 25.6953 115.082 25.4204 114.407 25.8029C114.037 26.0124 113.682 26.253 113.35 26.5191C113.201 26.4495 113.032 26.4045 112.841 26.3901L112.793 26.3872L111.694 26.3317C111.234 26.1288 110.775 25.916 110.314 25.7086C110.038 25.4813 109.729 25.2918 109.393 25.1509C109.012 24.9924 108.622 24.9026 108.23 24.8727C107.913 24.7695 107.593 24.6786 107.267 24.6077C106.503 24.4414 105.703 24.3482 104.909 24.356C104.893 24.1517 104.885 23.9449 104.887 23.7357L104.888 23.6309C104.906 22.9601 104.368 22.4246 103.734 22.3293ZM104.504 75.9965C104.613 76.0198 104.723 76.0386 104.834 76.0519C104.8 76.134 104.767 76.216 104.734 76.2981C104.645 76.348 104.555 76.3956 104.465 76.44C104.491 76.2892 104.507 76.1373 104.504 75.9965ZM110.229 74.3038L110.303 74.4395C110.315 74.4618 110.327 74.4837 110.339 74.5053C110.182 74.4931 110.023 74.4964 109.867 74.5141L109.868 74.4976C109.888 74.4909 109.908 74.4847 109.927 74.4753C110.035 74.4239 110.135 74.3662 110.229 74.3038ZM107.135 68.1113C106.149 68.1685 105.314 68.3189 104.417 68.748L104.34 68.7854C103.548 69.1768 102.237 69.8997 102.347 70.9363C102.378 71.2313 102.594 71.5417 102.932 71.5184C103.861 71.4552 104.391 70.5239 105.02 69.9429C105.654 69.3575 106.433 68.7555 107.201 68.353C107.309 68.2964 107.266 68.117 107.148 68.1113L107.135 68.1113ZM111.606 54.4531C111.842 54.4609 111.763 54.6893 111.642 54.4986C111.632 54.483 111.619 54.4675 111.606 54.4531ZM98.8528 39.2059C101.09 39.2644 103.342 40.5788 105.019 41.9074C106.477 43.0632 107.736 44.438 108.851 45.9198C109.138 46.6577 109.384 47.4111 109.592 48.17C109.729 48.6712 109.815 49.1779 109.93 49.6834L109.966 49.8384C110.056 50.0061 110.123 50.1864 110.171 50.3728C109.968 50.5755 109.705 50.7206 109.415 50.7895C109.321 50.8117 109.243 50.8597 109.182 50.9233C108.948 50.5355 108.744 50.1261 108.625 49.6922L108.621 49.6721C108.172 48.9405 107.684 48.2316 107.162 47.5469C105.72 45.6566 104.131 43.9336 102.222 42.5001C100.775 41.4135 99.1566 40.562 97.436 40.0088C97.8571 39.6708 98.3354 39.4033 98.8528 39.2059Z" fill="black"/>
<path fill-rule="evenodd" clip-rule="evenodd" d="M78.6813 80.3176C79.5023 80.5542 80.3835 80.5753 81.2203 80.331C81.9794 80.1094 82.7587 79.6218 83.3173 78.9764C83.8136 78.4032 84.135 77.7065 84.1223 76.9629C84.1209 76.878 84.0904 76.8071 84.0434 76.7521C83.9929 76.6928 83.9223 76.6521 83.8466 76.6345C83.7689 76.6163 83.6866 76.6228 83.6166 76.6544C83.5532 76.6831 83.4989 76.7317 83.465 76.8028C83.3791 76.915 83.2936 77.0256 83.2077 77.133C82.5175 77.981 81.849 78.6147 80.811 78.842C80.2478 78.9654 79.6854 78.9107 79.1693 78.7225C78.6169 78.521 78.1175 78.1668 77.7261 77.7136C77.5493 77.5087 77.3405 77.4251 77.1363 77.4237C76.905 77.4221 76.6763 77.5291 76.504 77.7C76.3347 77.868 76.2213 78.0964 76.211 78.3352C76.202 78.5449 76.2707 78.7639 76.4536 78.9592C77.056 79.6028 77.8367 80.0742 78.6813 80.3176ZM78.7067 69.6971C77.8651 70.206 76.5829 71.3927 77.4882 72.6543C78.5538 73.7667 80.0881 72.4912 80.8442 71.9144C81.5452 71.4673 82.3329 72.6171 81.6825 73.1392C76.2191 77.1633 74.002 69.8302 78.2811 69.0987C78.7522 69.0181 78.9272 69.5397 78.7067 69.6971ZM86.579 67.4578C86.8495 67.2857 87.1676 67.2267 87.5202 67.3863C87.7958 67.5109 88.2791 67.9265 88.6155 68.4729C88.8456 68.8466 89.0087 69.2851 88.9748 69.7419C88.9669 69.8479 89.0063 69.9261 89.0684 69.984C89.1175 70.0296 89.1884 70.0632 89.2717 70.0737C89.3423 70.0826 89.4215 70.0746 89.4858 70.0546C89.6082 70.0166 89.673 69.9376 89.6974 69.8731C89.9329 69.2509 89.8314 68.5565 89.5675 67.9301C89.2113 67.0847 88.5644 66.3766 88.1406 66.1483C87.4154 65.7574 86.5598 65.7394 85.8335 66.1376C85.2153 66.4765 84.8287 67.0236 84.4443 67.5813C84.3625 67.6998 84.2814 67.8175 84.1976 67.9331C84.0296 68.1648 84.0128 68.3945 84.0779 68.5915C84.15 68.8098 84.3338 68.994 84.5636 69.0904C84.776 69.1795 85.0226 69.192 85.2407 69.1005C85.425 69.0231 85.5942 68.8724 85.7012 68.6166C85.8814 68.1858 86.1817 67.7105 86.579 67.4578ZM72.8418 68.4162C73.0271 68.5122 73.172 68.5412 73.3775 68.4799C73.4911 68.446 73.6034 68.3809 73.6914 68.2934C73.7785 68.2067 73.8414 68.0989 73.8658 67.9793C73.9259 67.6841 74.0883 67.4078 74.3196 67.2277C74.5173 67.0738 74.7669 66.9922 75.0437 67.0382C75.3424 67.0878 75.627 67.2784 75.823 67.5031C75.8886 67.5783 75.9399 67.6637 75.9915 67.7485C76.0881 67.9071 76.182 68.0546 76.3152 68.1711C76.3657 68.2154 76.4417 68.2461 76.5154 68.2461C76.5454 68.2461 76.5758 68.2413 76.6047 68.2323C76.9021 67.9354 76.9592 67.7102 76.9496 67.4868C76.9396 67.2525 76.8468 67.0154 76.6967 66.7941C76.3449 66.275 75.6767 65.8494 75.2259 65.753C74.6084 65.621 73.9952 65.7794 73.5036 66.1225C72.9977 66.4755 72.6229 67.0236 72.506 67.6413C72.4779 67.7901 72.4898 67.9506 72.5468 68.0899C72.6024 68.2259 72.6994 68.3424 72.8418 68.4162ZM85.2172 61.9234C85.5878 62.2826 86.0263 62.3382 86.47 62.3877C86.7165 62.4154 86.9133 62.4378 87.107 62.4813C87.6393 62.6008 88.1654 62.7809 88.6455 63.0402C89.1473 63.3112 89.6941 63.6381 90.0875 64.0569C90.1811 64.1565 90.2692 64.2611 90.3575 64.3659C90.4381 64.4614 90.5156 64.5534 90.5974 64.6421C90.6913 64.744 90.7804 64.8508 90.8691 64.9573C90.9239 65.0472 90.9348 65.0693 90.9458 65.0923C90.9624 65.1269 90.9818 65.1656 91.0038 65.2071C91.0341 65.2639 91.0695 65.3261 91.1066 65.3826C91.1683 65.4857 91.2014 65.5141 91.23 65.5268C91.2775 65.5478 91.3225 65.5582 91.3662 65.5526C91.4072 65.5473 91.4458 65.5278 91.4839 65.4957C91.6741 65.3358 91.7302 65.0734 91.7245 64.7948C91.7157 64.3721 91.559 63.9041 91.4145 63.6163C91.0786 62.9478 90.6127 62.2529 90.0525 61.7539C89.4133 61.1844 88.7139 60.7532 87.9106 60.4561C87.4114 60.2714 86.8335 60.1018 86.2896 60.1233C85.8982 60.1387 85.5245 60.2544 85.2158 60.5435C85.0263 60.721 84.9353 60.9735 84.9353 61.2257C84.9353 61.483 85.0298 61.7418 85.2172 61.9234ZM72.0882 65.2124C72.1118 65.2508 72.1444 65.2773 72.1807 65.2932C72.2187 65.3099 72.2612 65.3147 72.302 65.3078C72.3426 65.301 72.3811 65.2827 72.4117 65.2548C72.441 65.228 72.4634 65.1924 72.4734 65.1489C72.7194 64.0739 73.1971 63.2741 74.2166 62.7584C74.7182 62.5047 75.2949 62.3435 75.8409 62.2149C75.9995 62.1776 76.1672 62.1534 76.336 62.1289C76.8651 62.052 77.3981 61.964 77.743 61.5385C77.9509 61.2822 78.0381 60.9544 77.9888 60.6546C77.9423 60.3724 77.7765 60.1136 77.4752 59.9585C76.7249 59.5725 75.7925 59.9512 75.0348 60.2738C74.9786 60.2978 74.9234 60.3213 74.8695 60.3439C74.1285 60.6551 73.4527 61.0658 72.8972 61.6532C72.4565 62.1191 72.0481 62.808 71.8836 63.5167C71.7468 64.1062 71.779 64.7081 72.0882 65.2124Z" fill="black"/>
</svg>
