<svg width="151" height="326" viewBox="0 0 151 326" fill="none" xmlns="http://www.w3.org/2000/svg">
<path fill-rule="evenodd" clip-rule="evenodd" d="M26.0291 148.543C26.0479 149.814 26.1757 152.731 26.4956 153.96C22.9312 148.268 17.5901 142.046 16.7779 135.073C17.031 135.004 18.1542 134.901 18.3503 134.755C20.1945 135.608 19.8456 132.981 20.1181 131.766C20.8542 129.193 22.4005 126.663 23.0724 124.073C24.8385 123.312 21.2918 122.99 20.7766 122.975C22.9188 120.598 23.9042 117.331 25.4295 114.559C27.6707 109.847 29.678 105.031 31.4704 100.139C31.8621 103.204 31.9324 106.303 31.6937 109.385C30.9567 122.587 25.9792 135.28 26.0291 148.543ZM149.74 125.093C148.631 125.278 146.783 125.454 145.676 125.544C147.129 124.681 151.422 123.038 148.717 121.56C147.882 121.257 146.987 121.69 146.146 121.824C142.652 122.397 138.339 122.366 134.804 122.078C136.092 121.024 137.789 119.507 139.046 118.416C139.714 117.837 140.362 117.617 139.611 116.752C138.286 115.523 135.916 116.428 134.385 116.968C130.159 119.327 125.388 121.886 120.852 123.701C120.805 123.068 120.834 122.249 120.222 121.824C118.424 120.98 117.101 121.227 115.189 121.002C112.96 120.669 110.979 120.291 108.772 119.703C107.329 118.606 106.448 115.371 104.14 115.733C106.184 110.606 103.068 105.258 101.898 100.349C100.437 95.3256 99.6693 90.1085 99.6485 84.8852C99.6342 76.5225 94.7728 70.1059 87.7484 65.8148C84.9792 63.9515 83.1197 59.4193 79.6913 58.5115C79.2553 56.8446 79.2288 56.1123 78.8459 54.4326C78.6537 53.9502 78.5109 51.3321 78.0274 51.4212C77.4944 48.8279 74.7777 47.7878 72.4269 47.2447C69.3704 46.6135 65.105 45.849 62.3574 47.6299C61.5615 48.2897 61.212 49.3946 61.1536 50.3816C60.8483 51.6959 60.2132 53.0574 59.473 54.1977C58.2097 53.7724 58.9246 52.9799 57.6752 52.7954C46.2666 51.1105 33.6029 59.45 26.2007 67.5855C12.7831 81.3143 2.06419 100.056 3.81879 119.623C3.3469 119.554 1.25537 119.227 1.28523 119.885C1.38799 122.749 1.9167 125.137 2.06263 127.998C1.91758 131.789 5.8697 132.245 8.72466 133.18C8.54887 144.177 12.5585 155.177 18.8342 164.217C20.3588 165.995 22.6466 172.168 25.4295 169.709C25.7575 169.327 23.2141 166.679 22.7616 166.025C21.2166 164.087 17.1239 154.491 20.0163 152.575C20.6594 154.646 26.8858 164.607 27.9958 158.953C29.4699 159.806 31.9059 160.387 33.6681 160.299C36.981 162.087 40.2046 164.019 43.3861 166.025C44.868 168.925 47.0417 171.71 48.8627 174.495C36.2597 203.502 23.9582 251.245 7.7397 278.566C6.32559 280.35 14.1049 283.383 15.4789 284.037C12.8513 288.289 12.5223 293.215 10.5232 297.793C10.1424 297.732 9.75832 297.812 9.41484 297.996C6.94886 299.66 6.01829 305.617 5.87768 308.554C5.99154 309.864 5.50412 311.846 6.56797 312.811C6.41926 312.971 6.30828 313.167 6.22926 313.367C5.48059 313.948 5.57281 315.231 5.97301 316.026C7.38112 318.939 17.6735 318.668 21.0136 319.291C32.8447 320.29 42.7749 320.447 54.6045 319.356C56.0564 319.053 54.9584 316.795 54.2415 316.183C54.5726 315.982 54.7844 315.616 54.6394 315.145C51.9502 307.481 42.2303 308 36.3488 303.907C37.8953 303.016 36.8971 303.3 35.9255 303.647C34.8943 303.001 33.8911 302.275 32.9619 301.472C33.6756 301.033 33.3236 300.743 32.5515 301.11C31.3346 300.138 30.3868 298.635 28.8366 298.164C27.3183 297.793 27.3183 297.146 27.3183 296.738C28.2219 293.118 29.209 289.405 29.7163 285.734C30.2574 286.529 34.9265 280.157 35.9255 278.566C39.8073 272.44 39.7968 266.403 42.5132 259.742C48.0914 245.234 59.5181 214.828 66.4865 200.954C82.791 227.427 74.8496 263.233 84.9078 291.463C85.3548 292.311 86.1954 295.492 87.3595 294.574C87.812 294.68 88.2931 294.736 88.724 294.797C88.5996 297.883 88.3676 300.961 87.853 304.015C87.3736 304.141 86.9663 304.392 86.7553 304.83C85.948 304.24 84.4024 312.954 84.2701 313.841C84.2681 314.986 83.2775 317.536 84.1822 318.217C82.8787 318.748 82.6656 320.712 83.5824 321.723C86.3046 325.368 99.5735 324.366 104.469 324.977C110.659 324.824 136.555 327.134 138.353 321.282C138.711 319.947 138.098 318.26 136.852 317.746C137.35 316.586 136.156 315.466 135.425 314.652C131.117 310.187 124.492 309.483 118.756 307.54C118.97 307.321 111.268 303.389 109.598 302.417C109.708 301.097 106.955 302.42 106.947 302.417C105.634 300.105 104.704 296.508 103.824 294.013C105.448 293.512 109.363 293.066 110.088 291.463C112.42 290.684 110.081 287.314 109.598 285.734C95.9301 251.657 108.897 208.675 88.724 176.512C92.4219 174.402 96.6643 169.784 93.0116 165.91C92.2805 164.978 90.4924 162.079 90.5218 162.585C89.8426 159.824 88.3256 155.069 87.853 152.277C86.1176 142.028 87.255 132.429 88.724 122.078C90.7635 129.867 97.7929 136.356 104.944 139.914C107.735 141.062 111.42 143.43 114.484 142.683C117.249 141.868 122.271 136.211 122.863 133.494C130.924 134.449 139.294 133.683 146.998 131.158C147.987 130.785 149.158 130.817 148.852 129.418C148.547 128.231 146.372 128.534 145.437 128.754C146.866 127.965 150.577 127.758 150.549 125.694C150.5 125.264 150.181 125.019 149.74 125.093Z" fill="#8D4020"/>
<mask id="mask0" mask-type="alpha" maskUnits="userSpaceOnUse" x="0" y="47" width="151" height="135">
<path d="M0.500061 47.5H150.5V181.5H93.0001V173L87.0001 178.5L77.0001 180L64.5001 178.5L42.0001 166L48.0001 175.5L45.5001 182L0.500061 181.5V47.5Z" fill="#C4C4C4"/>
</mask>
<g mask="url(#mask0)">
<path fill-rule="evenodd" clip-rule="evenodd" d="M26.0292 148.543C26.0479 149.814 26.1757 152.731 26.4957 153.96C22.9312 148.268 17.5902 142.046 16.7779 135.073C17.0311 135.004 18.1543 134.901 18.3504 134.755C20.1945 135.608 19.8456 132.981 20.1182 131.766C20.8542 129.193 22.4006 126.663 23.0725 124.073C24.8386 123.312 21.2919 122.99 20.7766 122.975C22.9189 120.598 23.9043 117.331 25.4296 114.559C27.6708 109.847 29.6781 105.031 31.4704 100.139C31.8622 103.204 31.9324 106.303 31.6937 109.385C30.9567 122.587 25.9793 135.28 26.0292 148.543ZM149.74 125.093C148.631 125.278 146.783 125.454 145.676 125.544C147.129 124.681 151.422 123.038 148.717 121.56C147.882 121.257 146.987 121.69 146.146 121.824C142.652 122.397 138.339 122.366 134.804 122.078C136.093 121.024 137.789 119.507 139.046 118.416C139.715 117.837 140.362 117.617 139.611 116.752C138.286 115.523 135.917 116.428 134.385 116.968C130.159 119.327 125.388 121.886 120.852 123.701C120.805 123.068 120.834 122.249 120.222 121.824C118.425 120.98 117.101 121.227 115.189 121.002C112.961 120.669 110.98 120.291 108.772 119.703C107.329 118.606 106.448 115.371 104.14 115.733C106.185 110.606 103.068 105.258 101.898 100.349C100.437 95.3256 99.6694 90.1085 99.6485 84.8852C99.6342 76.5225 94.7729 70.1059 87.7485 65.8148C84.9793 63.9515 83.1198 59.4193 79.6914 58.5115C79.2553 56.8446 79.2289 56.1123 78.846 54.4326C78.6538 53.9502 78.5109 51.3321 78.0275 51.4212C77.4945 48.8279 74.7778 47.7878 72.427 47.2447C69.3705 46.6135 65.1051 45.849 62.3574 47.6299C61.5616 48.2897 61.212 49.3946 61.1536 50.3816C60.8483 51.6959 60.2133 53.0574 59.4731 54.1977C58.2098 53.7724 58.9247 52.9799 57.6753 52.7954C46.2666 51.1105 33.603 59.45 26.2008 67.5855C12.7832 81.3143 2.06425 100.056 3.81885 119.623C3.34696 119.554 1.25543 119.227 1.28529 119.885C1.38805 122.749 1.91676 125.137 2.0627 127.998C1.91764 131.789 5.86976 132.245 8.72472 133.18C8.54893 144.177 12.5585 155.177 18.8342 164.217C20.3589 165.995 22.6466 172.168 25.4296 169.709C25.7575 169.327 23.2141 166.679 22.7617 166.025C21.2166 164.087 17.124 154.491 20.0164 152.575C20.6594 154.646 26.8859 164.607 27.9958 158.953C29.47 159.806 31.9059 160.387 33.6682 160.299C36.981 162.087 40.2047 164.019 43.3862 166.025C44.8681 168.925 47.0417 171.71 48.8628 174.495C36.2598 203.502 23.9583 251.245 7.73976 278.566C6.32565 280.35 14.105 283.383 15.479 284.037C12.8513 288.289 12.5223 293.215 10.5233 297.793C10.1425 297.732 9.75838 297.812 9.4149 297.996C6.94892 299.66 6.01835 305.617 5.87774 308.554C5.9916 309.864 5.50418 311.846 6.56804 312.811C6.41932 312.971 6.30834 313.167 6.22932 313.367C5.48065 313.948 5.57287 315.231 5.97307 316.026C7.38118 318.939 17.6736 318.668 21.0137 319.291C32.8448 320.29 42.7749 320.447 54.6045 319.356C56.0565 319.053 54.9584 316.795 54.2415 316.183C54.5727 315.982 54.7844 315.616 54.6395 315.145C51.9502 307.481 42.2303 308 36.3488 303.907C37.8954 303.016 36.8972 303.301 35.9256 303.647C34.8943 303.001 33.8912 302.275 32.962 301.472C33.6757 301.033 33.3236 300.743 32.5515 301.11C31.3346 300.138 30.3869 298.635 28.8367 298.164C27.3184 297.793 27.3184 297.146 27.3184 296.738C28.222 293.118 29.209 289.405 29.7163 285.734C30.2575 286.529 34.9265 280.157 35.9256 278.566C39.8073 272.44 39.7968 266.403 42.5133 259.742C48.0915 245.234 59.5181 214.828 66.4866 200.954C82.7911 227.427 74.8497 263.233 84.9078 291.463C85.3549 292.311 86.1954 295.492 87.3596 294.574C87.8121 294.68 88.2932 294.736 88.7241 294.797C88.5997 297.883 88.3676 300.961 87.853 304.015C87.3737 304.141 86.9664 304.392 86.7553 304.83C85.948 304.24 84.4024 312.954 84.2701 313.841C84.2681 314.986 83.2775 317.536 84.1822 318.217C82.8788 318.748 82.6657 320.712 83.5825 321.723C86.3046 325.368 99.5735 324.366 104.469 324.977C110.659 324.824 136.555 327.134 138.353 321.282C138.711 319.947 138.098 318.26 136.852 317.746C137.35 316.586 136.156 315.466 135.425 314.652C131.117 310.187 124.492 309.483 118.756 307.54C118.97 307.321 111.268 303.389 109.598 302.417C109.708 301.097 106.955 302.42 106.947 302.417C105.634 300.105 104.704 296.508 103.824 294.013C105.449 293.512 109.363 293.066 110.088 291.463C112.42 290.684 110.081 287.314 109.598 285.734C95.9302 251.657 108.898 208.675 88.7241 176.512C92.422 174.402 96.6643 169.784 93.0116 165.91C92.2806 164.978 90.4925 162.079 90.5219 162.585C89.8427 159.824 88.3257 155.069 87.853 152.277C86.1177 142.028 87.2551 132.429 88.7241 122.078C90.7636 129.867 97.793 136.356 104.944 139.914C107.735 141.062 111.42 143.43 114.484 142.683C117.249 141.868 122.271 136.211 122.863 133.494C130.924 134.449 139.294 133.683 146.998 131.158C147.987 130.785 149.158 130.817 148.852 129.418C148.547 128.231 146.372 128.534 145.437 128.754C146.866 127.965 150.577 127.758 150.549 125.694C150.5 125.264 150.181 125.019 149.74 125.093Z" fill="#FFC768"/>
</g>
<path fill-rule="evenodd" clip-rule="evenodd" d="M61.1815 48.6279C61.3041 48.6775 61.3878 48.8633 61.4374 49.1425C61.5739 49.1849 61.6909 49.2854 61.7261 49.4367C61.8295 49.8818 61.7086 50.3458 61.6154 50.7893L61.6048 50.8404C61.5165 51.2699 61.4087 51.6967 61.2768 52.1151L61.2576 52.2211C60.9367 53.9508 60.318 55.5953 59.5916 55.316L59.7594 55.6205C62.6101 60.7759 70.7528 74.6183 77.1104 72.6453C80.8126 71.1666 80.7596 66.36 80.489 63.0149C77.7401 64.695 77.2258 51.8334 77.7893 50.4121C78.238 50.0833 78.4544 53.0419 78.6213 53.4498C78.9856 55.0727 79.4322 56.6747 79.8516 58.2841C80.738 58.459 81.5763 58.811 82.3175 59.3156C82.3528 59.3359 82.3892 59.3542 82.4238 59.3752C82.8686 59.6449 83.2156 59.9889 83.525 60.3699C83.8747 60.7598 84.1738 61.1866 84.4563 61.6253C85.0771 62.3282 85.6689 63.0572 86.2805 63.7676C86.5707 64.1047 86.8678 64.4316 87.1715 64.7502L87.4057 64.9463C87.4448 64.9789 87.4841 65.0113 87.5234 65.0434C94.5471 69.4133 99.4095 75.9516 99.4232 84.4681C99.4439 89.7885 100.211 95.1025 101.672 100.219C102.843 105.219 106.625 110.33 104.58 115.551C106.889 115.183 107.103 118.14 108.547 119.258L109 119.38C111.028 119.924 112.888 120.377 114.963 120.693C116.876 120.922 119.086 120.671 120.883 121.53C121.496 121.963 121.277 122.745 121.324 123.39C125.859 121.541 129.932 118.987 134.158 116.585L134.3 116.534C135.864 115.981 138.654 115.149 139.939 116.364C140.691 117.245 139.932 118.032 139.263 118.622C138.006 119.733 136.672 120.752 135.384 121.825C138.855 122.114 142.337 121.883 145.77 121.322L145.958 121.291C146.799 121.155 147.79 120.828 148.625 121.138C151.33 122.642 148.2 124.399 146.747 125.278C147.854 125.186 148.959 125.049 150.068 124.86C150.509 124.784 150.828 125.035 150.876 125.473C150.904 127.575 148.125 127.688 146.696 128.492L146.811 128.465C147.745 128.25 149.089 128.06 149.381 129.221C149.687 130.645 147.76 131.221 146.771 131.601C139.068 134.173 130.698 134.953 122.637 133.981C122.045 136.748 117.023 142.51 114.258 143.34C111.194 144.101 107.509 141.689 104.718 140.52C97.5676 136.895 90.942 130.916 88.9027 122.982C87.1889 135.283 87.8816 147.685 90.4544 159.788C90.8709 160.731 91.3104 161.66 91.8048 162.565C91.9541 162.589 92.0805 162.689 92.1097 162.89C92.1249 163 92.1472 163.107 92.1724 163.213C92.6647 164.047 93.2043 164.847 93.7052 165.676C93.8088 165.847 93.911 166.025 94.0044 166.207C97.3393 170.127 93.2747 175.177 89.6393 177.291C109.812 210.051 96.7829 251.335 110.45 286.045L110.481 286.144C111 287.795 112.58 291.192 110.295 291.97C109.569 293.603 105.913 293.796 104.289 294.307C105.169 296.847 106.148 299.36 107.461 301.715L107.484 301.726C108.007 301.342 109.129 300.947 109.592 301.364C109.705 301.378 109.817 301.41 109.927 301.464C110.644 301.819 111.221 302.498 111.907 302.926C112.278 303.157 112.664 303.367 113.061 303.551C113.43 303.721 113.823 303.834 114.125 304.115C114.22 304.204 114.244 304.317 114.221 304.421C114.459 304.544 114.697 304.668 114.934 304.792L115.063 304.711C117.159 303.41 118.845 302.705 115.795 305.205C116.888 305.709 118.009 306.149 119.136 306.562C119.993 306.151 120.907 305.851 121.85 305.81C122.019 306.019 120.724 306.826 120.51 307.049C126.246 309.028 132.555 310.578 136.863 315.127L136.911 315.181C137.645 316.005 138.777 317.122 138.29 318.278C139.536 318.802 140.149 320.52 139.791 321.88C137.993 327.84 110.433 325.488 104.243 325.644C99.3482 325.022 86.0797 326.042 83.3576 322.329C82.441 321.3 82.6539 319.299 83.9574 318.758C83.0527 318.064 84.0432 315.467 84.0454 314.301L84.0662 314.166C84.2048 313.296 84.8054 309.888 85.4289 307.506C85.4416 307.319 85.4666 307.126 85.4968 306.933L85.5163 306.81C85.6403 306.051 85.8305 305.279 86.3225 304.668C86.6759 304.23 87.1655 303.959 87.6968 303.861C87.8391 302.955 87.956 302.046 88.0563 301.135C88.127 300.065 88.1539 298.993 88.1418 297.92C88.1355 297.378 88.1211 296.837 88.0946 296.296C88.0751 295.898 88.0979 295.425 87.9965 295.018C87.9289 295.087 87.8327 295.124 87.7249 295.087C87.496 295.009 87.2853 294.865 87.0751 294.747C87.0672 294.742 87.0609 294.737 87.0541 294.732C85.9317 295.459 85.1194 292.35 84.6829 291.507C74.6252 262.752 82.5663 229.659 66.2622 202.693C64.0114 207.508 62.0772 211.925 59.9107 216.773C53.1447 231.913 44.7921 258.583 39.1905 274.614C37.6665 277.891 35.8751 281.059 33.7457 283.985C33.065 284.754 32.6082 285.886 31.6227 286.3L31.5365 286.313C31.2735 286.803 30.9084 287.215 30.3655 287.201C30.2323 287.198 30.0965 287.183 29.9593 287.159C29.4781 290.495 28.8731 293.853 28.0687 297.135L28.1772 297.09C28.7037 296.873 29.2574 296.688 29.7977 296.737C31.109 297.067 30.6235 298.21 29.587 298.587C30.8772 298.987 31.7502 300.113 32.7083 301.051C33.518 300.616 34.4256 300.391 35.3954 300.486C35.5439 300.5 35.6571 300.565 35.7357 300.654C35.7913 300.654 35.8454 300.657 35.8967 300.666L35.7911 300.729C35.9634 301.018 35.8404 301.457 35.3954 301.46C35.046 301.462 34.7097 301.493 34.3844 301.553C34.1585 301.685 33.9338 301.818 33.7122 301.957C34.4598 302.615 35.2559 303.222 36.0756 303.777C36.5085 303.556 36.9662 303.371 37.4424 303.223C38.0571 303.032 38.3255 304.006 37.708 304.182C37.5769 304.22 37.4471 304.262 37.3182 304.306L37.1915 304.383C37.1618 304.4 37.131 304.419 37.0989 304.438C42.9803 308.606 52.9217 308.078 55.6109 315.884C55.6999 316.178 55.6541 316.433 55.529 316.632C56.1119 317.165 56.3808 318.123 56.2495 318.858L56.2607 318.92C56.3607 319.515 56.2169 320.037 55.5759 320.173C51.2987 320.57 47.032 320.822 42.7362 320.9L42.3896 320.903C36.235 320.944 6.29889 320.721 4.94856 316.782C4.58845 316.052 4.47747 314.921 5.00439 314.27C5.06553 313.92 5.18594 313.602 5.40002 313.352C4.53296 312.479 4.95944 310.279 4.85335 309.171C5.04367 305.47 5.79676 301.503 8.06556 298.475C8.10262 298.427 8.14746 298.398 8.19374 298.383C8.58992 297.987 9.11051 297.736 9.70579 297.702C9.72432 297.656 9.74319 297.61 9.76128 297.564C10.224 296.476 10.6636 295.368 11.1003 294.255C11.4244 292.991 11.7624 291.729 12.101 290.475C12.4394 289.221 12.7704 287.966 13.0942 286.709C13.3521 285.707 13.574 284.578 14.0203 283.62C14.0082 283.579 13.9966 283.538 13.9833 283.497L13.5188 283.31C10.4765 282.077 5.65607 279.998 6.7152 278.625C18.0014 255.248 29.049 221.967 39.4062 197.732C39.568 197.256 39.7391 196.784 39.927 196.316C40.3844 195.177 40.8477 194.039 41.3177 192.904L41.6004 192.224L46.1126 181.402C46.5849 180.269 47.1174 179.142 47.4896 177.972C47.8483 176.844 47.9446 175.722 47.2632 174.696C46.6535 173.778 45.7943 173.018 45.1069 172.156C44.5871 171.504 44.0804 170.807 43.6263 170.075C43.2139 169.533 42.8692 168.913 42.5617 168.413C42.0688 167.612 41.4421 166.725 41.0845 165.799C40.6231 165.509 40.1609 165.221 39.697 164.935C38.8959 164.488 38.1076 164.019 37.3403 163.512C36.3713 162.938 35.396 162.373 34.4131 161.822C34.0583 161.646 33.7033 161.471 33.3479 161.297C32.2829 161.389 29.3409 160.08 28.3387 159.195C28.2242 159.172 28.1102 159.146 27.9969 159.118C27.9516 159.683 27.7663 160.195 27.3345 160.575C24.4628 161.996 20.8025 155.562 19.7938 153.415C17.7891 155.368 22.5724 165.024 24.1175 166.998L24.1999 167.121C24.6132 167.738 25.0465 168.431 25.6327 168.887L25.6918 168.932C26.0937 169.228 26.1682 169.691 25.8404 170.081C23.0575 172.585 20.1361 167.086 18.6115 165.274C12.3363 156.066 8.32658 144.862 8.50236 133.66C5.64761 132.708 1.69551 132.243 1.84056 128.382C1.69463 125.468 1.16594 122.585 1.06287 119.668C1.03343 118.998 3.12489 119.33 3.59687 119.401C2.90161 112.7 3.95211 105.896 5.82572 99.456C10.7446 82.9765 31.0004 53.2746 50.9374 52.2022C50.92 52.1699 50.9282 52.1262 50.9729 52.1146C51.8753 51.881 52.8725 51.9184 53.7998 51.9478C54.765 51.9783 55.746 51.9849 56.7061 52.0936C57.7011 52.2061 58.7547 52.5707 59.4231 53.292L59.6546 52.8756C59.9234 52.3895 60.1823 51.8984 60.3779 51.3619C60.477 51.0909 60.5546 50.8099 60.6254 50.526C60.7054 50.121 60.7255 49.6994 60.9178 49.3315C60.9229 49.3219 60.9293 49.3139 60.9348 49.305C61.004 49.0732 61.0831 48.8461 61.1815 48.6279ZM85.6508 318.743C85.3658 319.032 84.8719 319.158 84.4344 319.02C82.9805 323.137 90.8684 322.879 93.3999 323.11C96.0994 323.397 145.273 325.946 136.957 319.91C127.2 323.616 94.5684 324.025 85.6508 318.743ZM109.598 302.418C108.942 303.092 107.952 303.392 107.248 304.036C105.257 305.715 103.656 308.076 100.905 308.52C97.2904 309.193 94.0322 307.415 90.7992 306.007C90.3967 305.988 89.9768 305.818 89.5642 305.693C89.5495 305.722 89.535 305.753 89.5183 305.78C89.4982 305.772 89.4768 305.765 89.4529 305.762C89.4169 305.756 89.3828 305.752 89.3476 305.747C89.2646 305.681 89.1772 305.625 89.0866 305.578C89.0319 305.57 88.9775 305.563 88.9235 305.56C88.2572 305.519 87.534 305.674 87.1064 306.224C87.0697 306.271 87.0366 306.321 87.0045 306.371C86.7973 307.103 86.7708 307.988 86.8708 308.607C86.9032 308.809 86.8186 309.008 86.6754 309.123C86.5477 312.186 86.2017 315.262 85.9601 318.285C87.1693 318.718 88.424 319.048 89.6798 319.256C98.3456 320.318 107.104 320.811 115.836 320.544C121.035 320.357 126.226 319.894 131.37 319.125C133.033 318.969 134.735 318.327 136.397 318.586C136.468 318.453 136.578 318.339 136.732 318.261C132.472 312.448 125.191 310.876 118.844 308.327C117.795 308.995 117.15 310.386 115.982 310.801C115.529 310.868 114.898 310.602 114.965 310.029C115.153 308.855 116.425 308.32 117.282 307.639C116.363 307.211 115.461 306.747 114.582 306.23C113.718 307.005 112.696 307.596 111.887 308.424C112.346 309.542 110.43 309.445 110.408 308.255C110.541 306.938 112.635 306.38 113.57 305.612C112.109 304.726 110.805 303.609 109.598 302.418ZM6.6839 313.928C6.63296 314.028 6.54984 314.119 6.42677 314.19C6.21372 314.313 6.31611 314.963 6.32681 315.182L6.32745 315.197C6.3391 315.591 6.36374 315.983 6.39792 316.374C6.75748 316.697 7.21726 316.943 7.72808 317.091C23.2853 319.565 39.1411 319.765 54.8484 318.867C54.7762 318.451 54.4709 318.109 54.2007 317.761C44.2707 318.603 34.1019 317.722 24.1554 316.903C18.3404 316.141 12.2478 315.826 6.6839 313.928ZM29.3334 298.704C26.7694 299.583 24.3836 300.804 22.1111 302.266C21.2665 302.813 20.4605 303.441 19.4897 303.755C16.1282 304.763 11.0884 299.92 11.0077 299.866C9.84029 299.083 8.60246 299.813 7.96734 300.898C7.90864 300.999 6.93504 306.551 6.96445 309.271C6.78977 310.195 7.25587 311.707 7.00784 312.715C7.20283 312.949 7.48082 313.059 7.66804 313.303C7.73585 313.392 7.71665 313.492 7.65805 313.568C16.7355 314.312 25.7601 315.725 34.8807 316.023C41.1229 316.352 47.3769 316.276 53.6201 316.201C52.1997 312.045 47.3616 310.947 43.6661 309.579C40.8739 308.579 38.3033 307.09 36.0414 305.175C35.0604 305.861 34.2869 306.823 33.592 307.789C33.2763 308.182 32.6278 308.478 32.2897 307.934C31.9415 307.37 32.6213 306.656 33.4607 306.031C33.9022 305.379 34.459 304.824 35.1001 304.367C34.3913 303.737 33.7088 303.081 33.0694 302.384C31.7436 303.279 30.7695 304.567 29.8158 305.817C29.3575 306.315 28.5003 305.656 28.8763 305.095C29.1776 304.707 29.5167 304.35 29.8799 304.016C30.4272 302.987 31.2152 302.036 32.1713 301.378L32.0984 301.286C31.2998 300.265 30.6094 299.039 29.3334 298.704ZM6.74261 313.276C6.72064 313.303 6.69755 313.329 6.67292 313.354C6.69489 313.399 6.71176 313.445 6.72419 313.493L6.95713 313.512C6.87622 313.445 6.80498 313.364 6.74261 313.276ZM103.436 294.475C98.6801 295.37 93.7671 295.714 88.9667 294.975C89.5227 298.065 89.8708 301.174 89.6885 304.311C96.8659 306.376 99.848 309.819 105.82 302.938C105.531 302.501 105.365 301.963 105.171 301.444C104.346 299.195 103.664 296.867 103.436 294.475ZM16.0832 284.342C16.0154 284.491 15.8931 284.614 15.7168 284.669C15.654 284.945 15.5891 285.222 15.5198 285.497C15.4033 286.921 14.8642 288.332 14.3066 289.645C14.2684 289.736 14.2307 289.827 14.1929 289.917C13.8251 291.01 13.4396 292.1 13.0593 293.191C12.7712 294.325 12.5174 295.468 12.2521 296.607C12.201 297.379 12.0909 298.146 11.9217 298.903C11.9138 298.938 11.9032 298.971 11.8916 299.002C12.1574 299.12 12.4139 299.257 12.6559 299.395C19.9377 304.847 18.6801 301.202 25.6717 298.15C25.6315 297.856 25.7789 297.592 25.8991 297.288L25.9146 297.248C25.9219 297.229 25.9291 297.21 25.9364 297.191C25.9249 297.075 25.9316 296.951 25.9624 296.818C26.6705 293.932 27.6565 291.096 28.5794 288.272C28.7271 287.846 28.8982 287.431 29.0729 287.016C24.6399 286.959 20.255 285.783 16.0832 284.342ZM43.5752 167.381C83.7959 217.36 74.9846 223.253 83.6449 280.872C84.4861 285.357 86.1957 289.614 87.327 294.014L87.4832 293.999C87.6379 293.984 87.7848 293.975 87.8942 294.01L87.8985 294.011L88.3445 294.006C93.5481 293.934 98.7744 293.663 103.857 292.481C105.654 292.166 107.406 291.342 109.204 291.169C109.212 290.936 109.322 290.719 109.473 290.593C95.6007 257.895 105.266 220.544 93.2306 187.29C92.0883 183.962 90.728 180.709 89.321 177.484C73.852 186.701 56.5641 176.264 43.5752 167.381ZM14.1654 285.744C14.0796 286.121 13.9862 286.493 13.901 286.853L13.7755 287.389C13.9541 286.847 14.0949 286.297 14.1654 285.744ZM48.9729 176.232C48.9996 177.058 48.7995 177.891 48.5285 178.668C47.66 181.159 46.5476 183.584 45.5517 186.027C44.8759 187.684 44.2061 189.344 43.5292 191.001C33.5028 217.692 21.1953 253.47 9.05247 278.766C13.6276 281.404 18.644 283.271 23.8337 284.283C25.0388 284.684 28.485 284.702 29.7047 285.339L29.9825 285.067C30.0306 283.928 31.326 283.116 31.8446 282.118C34.1857 278.831 36.0519 275.237 37.7449 271.585L38.0215 270.783C42.5221 257.723 48.3957 239.745 54.5838 224.546L54.7753 224.077C57.3397 217.808 59.0254 212.03 62.1204 207.288C62.2891 207.033 62.4597 206.778 62.6315 206.522C62.758 206.269 62.8858 206.016 63.0156 205.763C63.5705 204.685 64.1689 203.631 64.7335 202.558C64.9742 202.1 65.2129 201.584 65.3393 201.056C60.423 192.45 54.5644 184.406 48.9729 176.232ZM56.3362 52.9065C54.7933 53.2805 53.2122 53.4333 51.6604 53.7436C40.9657 55.0144 32.7663 62.5713 25.7035 70.0745C12.3243 84.077 4.54006 101.306 5.11459 120.779C9.89245 121.646 14.621 122.916 19.489 123.193C18.7815 122.126 19.9663 120.79 20.3742 119.768C27.4153 106.212 32.8519 91.2486 37.2667 76.9778L37.1467 77.6006C35.7605 84.763 34.1458 91.8949 31.6812 98.775C32.3951 98.0756 44.1229 88.7817 43.2062 91.8548C39.6231 94.6453 35.5762 96.8566 31.8217 99.4174C36.2857 114.276 29.8321 129.331 28.606 144.195C28.2979 147.501 28.3246 150.829 27.9106 154.121C27.7531 154.494 27.9189 155.251 27.6871 155.605C27.8587 156.479 28.2199 157.276 28.9651 157.958C29.2788 158.245 29.6213 158.494 29.9813 158.716C30.8801 158.851 31.7829 159.196 32.5149 159.515C34.1437 160.226 35.5772 161.274 37.0331 162.275L37.072 162.301C39.4195 163.503 41.7645 164.868 44.1182 166.292L44.2233 166.347C45.0988 166.805 45.9939 167.218 46.7568 167.852C46.7915 167.881 46.8147 167.915 46.8299 167.949L48.2596 168.829C59.7108 175.871 71.5178 182.834 84.9438 177.808C88.716 176.294 94.1999 173.227 93.4956 168.484C93.3568 168.029 93.1456 167.602 92.9068 167.186C92.8404 167.096 92.7722 167.008 92.7035 166.922C92.1832 166.267 91.6009 165.666 91.1491 164.958C90.9653 164.67 90.8005 164.374 90.6564 164.069C90.5545 164.038 90.464 163.966 90.4069 163.842C89.7607 162.438 89.1277 161.031 88.5382 159.602C81.3911 134.776 90.0662 108.101 92.5205 83.0612C92.6906 81.6273 92.9411 80.1788 92.9404 78.7345C92.9404 78.6668 93.0389 78.669 93.0444 78.7345C93.91 85.1255 93.2533 91.576 92.4303 97.9382C91.3766 105.897 89.9922 113.823 89.041 121.797C91.5696 129.834 98.651 135.641 106.087 139.124C107.352 139.723 108.645 140.256 109.964 140.726L110.053 140.757C111.502 141.262 113.138 142.043 114.536 141.02C117.219 139.205 119.113 136.437 120.852 133.77C120.149 133.694 119.444 133.629 118.74 133.58C117.009 135.553 114.888 137.227 112.65 138.596C111.738 139.117 110.702 138.896 110.28 137.877C109.883 136.915 110.37 135.791 110.723 134.864L110.774 134.729C112.56 129.93 115.661 125.532 119.848 122.526C116.689 121.897 113.408 121.916 110.377 120.672C110.542 120.845 110.326 121.039 110.221 121.186C110.258 121.47 110.051 121.678 109.796 121.754C107.323 124.973 105.449 128.785 105.057 132.868C105.162 134.259 103.913 135.864 102.71 134.404C101.77 130.34 105.469 123.989 108.723 121.481C105.46 119.25 106.411 116.03 104.363 116.015C103.834 117.027 103.143 117.997 102.273 118.748C101.879 119.067 101.402 119.307 100.979 119.59C100.535 119.888 100.073 119.233 100.425 118.874L100.517 118.763C101.853 117.171 103.44 115.606 103.715 113.452C104.114 110.8 102.918 108.113 102.001 105.69C100.243 101.045 99.0764 96.2122 98.5083 91.2803C97.8647 86.8615 98.6474 82.278 97.1291 78.002C96.8273 76.8112 96.3933 75.7266 95.8613 74.72C95.8486 74.7095 95.8361 74.6988 95.8247 74.6857C95.1931 73.9578 94.6886 73.1481 94.0998 72.3857C93.484 71.5882 92.8163 70.8293 92.1092 70.1111C90.9274 68.9111 89.6226 67.9099 88.2625 66.9458C88.2373 66.9367 88.2119 66.925 88.1864 66.91C87.9316 66.76 87.6869 66.5778 87.4507 66.3776L87.4278 66.3617C86.6368 65.814 85.8297 65.2195 85.2123 64.4759C84.6064 63.7458 84.1751 62.8945 83.6804 62.0903C83.0041 61.2684 82.3595 60.3877 81.5439 59.7028C81.0826 59.4404 80.6025 59.1932 80.1908 58.865C80.1234 58.8369 80.0549 58.8103 79.9852 58.7851C80.1607 59.4978 80.4261 60.1536 80.6653 60.8776C81.0118 60.7319 81.486 60.8934 81.5442 61.4252L81.5657 61.6237C81.9136 64.8804 82.0897 68.8213 80.1675 71.641C75.9346 77.7558 69.6122 72.5352 66.4146 68.2355C63.5451 64.8063 61.1327 60.9919 59.3512 56.8925L59.3217 56.8384C58.9899 56.211 58.271 54.298 58.0678 53.3788C57.5541 53.1093 56.9291 52.9788 56.3362 52.9065ZM42.7843 166.875C42.7714 166.891 42.7568 166.905 42.7408 166.917C43.3412 167.767 43.9131 168.645 44.5026 169.498C44.0193 168.711 43.565 167.918 43.1627 167.116C43.0369 167.035 42.9104 166.955 42.7843 166.875ZM9.18597 133.872C11.4803 146.281 14.7591 159.337 23.8951 168.616C21.0518 164.626 18.8407 159.968 18.1974 155.089C18.1707 153.78 18.6494 152.397 20.1036 152.203C20.3518 152.17 20.5403 152.391 20.629 152.588L20.6375 152.608C21.2096 153.968 21.9535 155.262 22.8343 156.447L22.9207 156.56C23.5853 157.416 26.4066 160.906 26.8001 159.238C26.5121 150.804 17.7623 147.326 16.3294 135.71C13.8777 135.451 11.5512 134.524 9.18597 133.872ZM27.9957 158.487C28.0051 158.619 28.0097 158.75 28.0077 158.879C28.1376 158.826 28.2712 158.783 28.4079 158.75C28.2691 158.664 28.132 158.576 27.9957 158.487ZM27.866 157.578C27.914 157.82 27.9546 158.065 27.9796 158.307C28.2293 158.386 28.4763 158.473 28.722 158.563C28.5731 158.429 28.4314 158.288 28.2985 158.138C28.1437 157.963 27.9986 157.775 27.866 157.578ZM31.2473 100.006C29.4551 104.988 27.4478 109.894 25.2066 114.693C23.7018 117.502 22.6978 120.774 20.6154 123.211C20.5951 123.231 20.5747 123.249 20.5538 123.266L20.5883 123.267C21.2088 123.294 24.5804 123.625 22.8497 124.384C22.1778 127.022 21.2974 129.6 20.5613 132.22L20.5449 132.296C20.2755 133.563 19.935 136.116 18.1277 135.264C17.9316 135.414 17.6962 135.519 17.4431 135.589C18.2554 142.691 22.7645 147.314 26.3289 153.113C25.5321 150.052 25.765 146.857 26.0424 143.732L26.1112 142.963C27.584 128.637 32.9887 114.549 31.2473 100.006ZM46.2157 145.544C43.3107 141.937 29.022 106.221 39.1197 127.859C42.7085 135.392 45.6626 143.456 51.5833 149.559C51.9927 149.998 51.4533 150.768 50.9213 150.414C49.0102 149.143 47.4634 147.457 46.2157 145.544ZM35.8743 102.377C35.8624 102.319 35.9368 102.287 35.9696 102.337C39.8518 109.971 42.6238 118.176 47.0104 125.58C49.6583 130.164 52.8356 134.438 56.4741 138.291C56.7474 138.581 56.3362 138.981 56.0401 138.724C45.6536 129.179 40.6038 115.303 35.8743 102.377ZM112.427 133.809L112.421 133.81L112.325 134.056C112.293 134.139 112.26 134.223 112.227 134.308C112.243 134.301 112.258 134.294 112.274 134.288C112.309 134.253 112.343 134.219 112.377 134.182C112.369 134.057 112.385 133.931 112.427 133.809ZM3.63804 119.701C3.11068 119.907 2.46281 119.946 1.87985 119.996C2.5325 123.059 3.09593 126.145 3.68665 129.216C3.95977 130.159 4.60188 130.49 5.49057 130.789L6.20484 131.016C9.53929 132.081 12.8926 133.174 16.3309 133.827C16.5726 133.67 16.9159 133.677 17.0764 133.929C17.2436 133.944 17.4153 133.953 17.585 133.969C18.5037 130.59 20.0756 127.316 22.1792 124.512C16.2996 124.701 10.3774 123.157 4.78399 121.43C4.55748 121.539 4.25918 121.471 4.16363 121.212L4.07749 121.187C3.13846 120.909 1.89338 120.228 3.86677 120.574C3.74758 120.297 3.68144 120 3.63804 119.701ZM138.835 117.2C134.938 116.559 131.96 119.704 128.633 121.148C126.642 121.999 121.335 124.638 119.406 123.76C116.76 126.296 114.527 129.259 112.966 132.584C113.391 132.559 113.817 132.54 114.243 132.527C115.014 132.28 115.837 132.267 116.638 132.505C124.658 132.593 132.684 134.145 140.672 132.178L140.856 132.143C142.497 131.833 148.099 130.654 148.418 129.498C148.334 128.995 146.828 129.526 146.539 129.583C144.236 130.035 141.897 130.25 139.564 130.477C138.915 130.539 138.923 129.534 139.564 129.47C142.372 129.191 145.033 128.142 147.61 127.049C147.883 126.928 148.609 126.677 149.111 126.352C146.73 126.756 144.277 126.826 141.868 126.74C141.039 126.633 140.98 125.378 141.868 125.403C143.494 125.582 145.048 124.783 146.376 123.938L146.665 123.752C148.878 122.315 148.723 122.252 145.926 122.787C141.817 123.532 137.658 123.504 133.508 123.22C132.915 123.21 132.506 122.416 132.997 121.991C134.907 120.347 136.956 118.882 138.835 117.2ZM119.997 123.186L119.952 123.229C119.856 123.32 119.778 123.401 119.734 123.444L119.717 123.461C119.658 123.516 119.601 123.573 119.543 123.628C119.798 123.713 120.079 123.718 120.369 123.673C120.194 123.564 120.064 123.386 119.997 123.186ZM46.7766 110.042L46.7672 110.03L46.789 110.054C49.296 112.756 51.8371 117.138 53.9141 120.594C54.1879 123.426 48.0469 111.674 46.7766 110.042ZM109.863 120.485C109.887 120.515 109.91 120.546 109.933 120.577L109.967 120.625L110.021 120.592C110.04 120.58 110.061 120.573 110.083 120.567C110.009 120.541 109.936 120.512 109.863 120.485ZM98.3925 111.26C100.648 111.613 96.0356 114.405 95.4268 114.804C95.0369 114.952 91.3302 118 91.555 117.011C93.2903 114.792 95.6849 112.205 98.3925 111.26ZM10.1521 105.41C10.9864 104.072 15.527 105.834 16.9622 106.045C17.769 106.257 18.5671 106.508 19.3825 106.686C20.0197 106.916 22.991 106.693 21.9006 107.948C20.7627 108.557 19.2772 108.086 18.112 107.763C15.7935 107.132 13.4671 106.396 11.093 106.046C11.0218 106.011 11.0175 106.035 11.0798 106.118C11.5905 107.249 12.6646 108.309 13.8743 108.673C13.9579 108.698 13.9227 108.825 13.8381 108.803L13.7569 108.786C12.3962 108.484 9.45678 107.049 10.1521 105.41Z" fill="black"/>
<path fill-rule="evenodd" clip-rule="evenodd" d="M91.3513 29.7475C91.3071 27.2712 91.2583 24.7454 90.8888 22.2933C90.5274 19.896 89.5334 17.729 87.8253 15.9882C84.1971 12.2904 78.9379 11.3872 74.0425 10.5595L65.6728 9.14427C63.1194 8.71262 60.3952 8.02265 57.8154 8.63481C56.5441 8.93646 55.4646 9.63727 54.4779 10.4664C53.5268 11.2656 52.5043 12.1238 51.8598 13.199C51.2143 14.2757 50.9922 15.5344 50.7824 16.7522C50.5456 18.1252 50.3617 19.5089 50.2311 20.8959C49.9693 23.6748 49.9336 26.4746 50.1235 29.2592C50.2155 30.6099 50.3619 31.9566 50.5487 33.2975C50.6414 33.9623 50.7462 34.6256 50.8645 35.2865C50.8993 35.4813 50.9258 35.6971 50.9616 35.9151C50.6976 36.663 50.5475 37.4375 50.5596 38.2087C50.5952 40.4805 52.5204 41.9107 54.4611 42.6786C55.5864 43.1239 56.7629 43.4264 57.8685 43.9238C59.0317 44.447 59.8234 45.2951 60.6186 46.2627C62.1353 48.108 63.8469 49.7665 65.8013 51.1502C69.945 54.0839 75.1933 55.4715 80.2209 54.4183C81.4272 54.1656 82.6442 53.7732 83.7286 53.1819C84.8734 52.5577 85.7342 51.6532 86.4571 50.5838C87.7994 48.5984 88.762 46.3628 89.4902 44.0879C90.233 41.7672 90.7602 39.4424 91.0478 37.0227C91.3343 34.6108 91.3947 32.1743 91.3513 29.7475Z" fill="white"/>
<path fill-rule="evenodd" clip-rule="evenodd" d="M64.6427 0.518078C68.1062 0.0435433 72.8868 1.58586 74.6117 4.69571C82.8468 2.76198 93.2334 2.69864 100.021 9.13597C107.103 16.7721 98.2074 26.8403 92.3086 29.1103C92.7381 31.1892 92.0685 44.5072 87.3303 50.4478C83.57 55.4812 74.8132 57.8041 70.7611 51.7922L70.7295 51.7425C70.2954 51.0482 70.6693 51.0705 71.1149 51.587C75.0828 55.0625 80.4777 55.1219 84.6349 51.454C92.4264 44.75 91.623 28.312 87.9155 18.8024C77.3583 17.6475 66.055 20.8346 58.7633 28.7501L59.2563 31.7067C59.3403 32.2104 59.4358 32.7137 59.5086 33.2192C59.5552 33.5431 59.5604 33.8652 59.3351 34.1274C58.5912 34.9929 57.3375 33.6923 56.306 33.175C56.0015 33.1323 55.6964 33.1158 55.3972 33.1368C50.4412 33.7727 51.4177 43.3485 56.8647 41.67C57.3223 41.386 57.7155 41.4727 57.8931 41.8847C59.1914 43.0692 60.0475 45.1818 62.2045 47.2166C62.9656 47.9798 63.6582 48.6184 64.5143 49.2307C65.0171 49.7372 66.5344 50.2536 66.0534 51.1203C65.1438 53.0925 59.7802 46.8975 58.8319 45.1843C55.8608 46.3529 52.5681 45.9559 49.4891 45.6703C33.2455 44.8291 35.4139 27.7744 48.7284 17.0069C51.2347 15.1691 53.9999 13.6699 56.8743 12.5162C57.2667 12.3587 57.0953 11.7169 56.6973 11.8766C54.7954 12.6401 52.9413 13.5488 51.1739 14.6006L51.1712 13.9718C51.1686 12.9127 51.1853 11.8101 51.37 10.8424C51.4623 10.1719 51.6176 9.45576 51.8566 8.917C52.1522 7.26525 56.7815 1.59559 64.6427 0.518078ZM55.1804 35.3353C55.4313 35.0979 55.8995 35.3809 56.1227 35.3738C56.6937 35.4517 57.2362 35.6919 57.6592 35.9883C57.9385 36.1442 58.1343 36.2905 58.2979 36.4252L58.3023 36.4239C58.3011 36.4239 58.2995 36.4252 58.2982 36.4255L58.3136 36.4359C58.5518 36.6044 59.4237 37.5538 58.8728 37.2985C58.8318 37.2453 58.7897 37.1943 58.7473 37.1442C58.7428 37.1511 58.7365 37.1578 58.7289 37.1643L58.7599 37.2101C59.2281 37.9116 58.4197 37.1725 58.2953 36.9762C58.2894 36.9809 58.2828 36.9841 58.2762 36.9876L58.4382 37.1839C58.4608 37.2118 58.4786 37.234 58.4934 37.2529L58.5276 37.2857C59.0689 37.8157 59.0858 38.2927 58.4569 37.5091C58.4817 37.546 58.5015 37.5851 58.5043 37.6198L58.5416 37.6672C59.0354 38.301 58.6337 38.0759 58.3883 37.8052L58.3678 37.7819L58.372 37.7882C58.6003 38.1385 58.1474 37.8927 58.0673 37.7054L58.0639 37.6969C57.9767 37.626 57.9231 37.5465 57.9047 37.5264L57.9013 37.523C57.4767 37.0897 56.8612 36.7231 56.3384 36.5565C56.2626 36.5421 56.1859 36.5306 56.1084 36.5224C55.794 36.4526 55.4762 36.4047 55.155 36.3788C55.1157 36.3742 55.0759 36.3455 55.0462 36.3083C54.5605 36.292 54.7104 36.0937 54.9119 36.0569L54.9154 36.0563L54.8755 36.053C54.5638 36.0227 54.3509 35.9113 54.6661 35.8429L54.706 35.835C54.7011 35.8274 54.6968 35.8198 54.6926 35.8121C54.4227 35.7826 54.5988 35.5213 54.7486 35.5845C54.6856 35.3793 54.9737 35.4817 55.0097 35.4512C55.0371 35.4209 55.0711 35.3942 55.0908 35.3927C55.1776 35.3317 55.1355 35.3373 55.1804 35.3353ZM56.8318 32.0119L56.7686 32.0487C56.7174 32.0785 56.6648 32.0982 56.612 32.1098C56.6865 32.1415 56.7602 32.1756 56.8331 32.2121C56.832 32.1675 56.8311 32.123 56.8311 32.0785L56.8318 32.0119Z" fill="black"/>
<path fill-rule="evenodd" clip-rule="evenodd" d="M81.5257 45.5502C80.7081 45.786 79.8306 45.8071 78.9973 45.5635C78.2415 45.3426 77.4654 44.8564 76.9091 44.213C76.4149 43.6415 76.0949 42.9469 76.1075 42.2056C76.1089 42.1209 76.1393 42.0502 76.1861 41.9954C76.2364 41.9363 76.3067 41.8957 76.382 41.8781C76.4595 41.86 76.5414 41.8665 76.6111 41.898C76.6742 41.9266 76.7283 41.9751 76.7621 42.046C76.8476 42.1578 76.9328 42.268 77.0182 42.3752C77.7056 43.2206 78.3713 43.8524 79.4049 44.079C79.9657 44.202 80.5259 44.1474 81.0398 43.9598C81.5899 43.759 82.0872 43.4058 82.4769 42.9539C82.653 42.7497 82.8609 42.6664 83.0642 42.665C83.2946 42.6634 83.5223 42.77 83.6939 42.9404C83.8625 43.108 83.9754 43.3356 83.9857 43.5738C83.9947 43.7828 83.9262 44.0011 83.7441 44.1959C83.1442 44.8375 82.3668 45.3075 81.5257 45.5502ZM81.5004 34.9617C82.3385 35.469 83.6153 36.6521 82.7138 37.9099C81.6526 39.019 80.1248 37.7474 79.3719 37.1723C78.6738 36.7266 77.8894 37.8729 78.5371 38.3934C83.9776 42.4053 86.1854 35.0943 81.9243 34.3651C81.4551 34.2848 81.2809 34.8047 81.5004 34.9617ZM73.6611 32.7291C73.3918 32.5576 73.0749 32.4987 72.7238 32.6578C72.4494 32.7821 71.9681 33.1964 71.6332 33.7411C71.404 34.1138 71.2415 34.5509 71.2754 35.0063C71.2832 35.112 71.244 35.19 71.1821 35.2477C71.1332 35.2932 71.0626 35.3267 70.9797 35.3371C70.9093 35.346 70.8305 35.338 70.7665 35.3181C70.6446 35.2802 70.5801 35.2014 70.5558 35.1372C70.3213 34.5168 70.4223 33.8246 70.6851 33.2C71.0398 32.3572 71.684 31.6512 72.106 31.4235C72.8282 31.0339 73.6802 31.0159 74.4034 31.4129C75.0191 31.7508 75.404 32.2962 75.7869 32.8522C75.8683 32.9704 75.9491 33.0877 76.0326 33.203C76.1999 33.4339 76.2165 33.663 76.1517 33.8594C76.0799 34.077 75.8969 34.2607 75.6681 34.3568C75.4565 34.4456 75.211 34.4581 74.9938 34.3668C74.8102 34.2897 74.6418 34.1394 74.5352 33.8844C74.3557 33.4549 74.0567 32.9811 73.6611 32.7291ZM87.3407 33.6847C87.1563 33.7804 87.0119 33.8093 86.8073 33.7482C86.6942 33.7143 86.5823 33.6494 86.4948 33.5622C86.408 33.4758 86.3454 33.3683 86.321 33.2491C86.2612 32.9548 86.0995 32.6793 85.8692 32.4997C85.6723 32.3463 85.4237 32.2649 85.1481 32.3108C84.8506 32.3603 84.5672 32.5503 84.372 32.7743C84.3068 32.8493 84.2556 32.9344 84.2042 33.019C84.108 33.1771 84.0146 33.3241 83.8819 33.4403C83.8317 33.4844 83.7559 33.515 83.6825 33.515C83.6527 33.515 83.6224 33.5102 83.5936 33.5013C83.2975 33.2053 83.2406 32.9807 83.2501 32.758C83.2601 32.5245 83.3526 32.288 83.502 32.0674C83.8524 31.5499 84.5177 31.1256 84.9667 31.0294C85.5815 30.8978 86.1922 31.0558 86.6817 31.3979C87.1855 31.7498 87.5588 32.2963 87.6751 32.9121C87.7031 33.0604 87.6912 33.2205 87.6345 33.3593C87.5791 33.4949 87.4826 33.6111 87.3407 33.6847ZM75.0172 27.2114C74.6482 27.5695 74.2115 27.625 73.7696 27.6743C73.5241 27.702 73.3282 27.7243 73.1353 27.7676C72.6053 27.8868 72.0813 28.0663 71.6033 28.3248C71.1036 28.595 70.5591 28.9209 70.1673 29.3385C70.0741 29.4378 69.9863 29.5421 69.8984 29.6465C69.8182 29.7418 69.741 29.8335 69.6595 29.922C69.5661 30.0235 69.4773 30.13 69.389 30.2362C69.3344 30.3258 69.3236 30.3478 69.3126 30.3707C69.296 30.4052 69.2768 30.4438 69.2548 30.4852C69.2247 30.5419 69.1894 30.6039 69.1525 30.6601C69.091 30.763 69.0581 30.7913 69.0296 30.804C68.9823 30.8249 68.9374 30.8353 68.8939 30.8297C68.8532 30.8244 68.8147 30.8049 68.7768 30.773C68.5873 30.6135 68.5315 30.3519 68.5372 30.0742C68.5459 29.6527 68.702 29.1861 68.8458 28.8993C69.1803 28.2328 69.6443 27.5399 70.2021 27.0424C70.8387 26.4746 71.5351 26.0447 72.335 25.7485C72.8321 25.5644 73.4077 25.3954 73.9493 25.4167C74.3391 25.4321 74.7112 25.5475 75.0186 25.8357C75.2073 26.0127 75.2979 26.2643 75.2979 26.5158C75.2979 26.7723 75.2038 27.0304 75.0172 27.2114ZM88.0912 30.4905C88.0677 30.5288 88.0352 30.5552 87.9991 30.5711C87.9612 30.5877 87.9189 30.5925 87.8783 30.5856C87.8379 30.5789 87.7995 30.5606 87.769 30.5327C87.7398 30.506 87.7176 30.4706 87.7076 30.4272C87.4627 29.3554 86.987 28.5581 85.9717 28.0439C85.4722 27.7909 84.8979 27.6302 84.3542 27.5021C84.1962 27.4648 84.0293 27.4407 83.8612 27.4163C83.3343 27.3396 82.8036 27.2519 82.4601 26.8277C82.2531 26.5721 82.1662 26.2453 82.2154 25.9465C82.2616 25.6651 82.4267 25.407 82.7268 25.2524C83.4739 24.8676 84.4024 25.2452 85.1569 25.5668C85.2129 25.5907 85.2678 25.6141 85.3216 25.6367C86.0594 25.9469 86.7324 26.3564 87.2855 26.942C87.7245 27.4066 88.1311 28.0933 88.2949 28.7999C88.4312 29.3877 88.3991 29.9877 88.0912 30.4905Z" fill="black"/>
<path fill-rule="evenodd" clip-rule="evenodd" d="M71.6136 46.3275C72.512 44.2309 74.4731 42.6901 76.7309 42.1267C78.3889 41.7141 80.1289 41.7273 81.819 41.891C82.7046 41.9762 83.6544 42.046 84.4889 42.3736C85.2015 42.6534 85.7823 43.1824 86.2189 43.8033C86.7387 44.539 87.0923 45.3811 87.3405 46.2442C87.3758 46.3669 87.4089 46.4905 87.4398 46.6148C87.3319 47.266 87.1027 47.8203 86.4971 48.2297C85.9062 48.6295 85.2011 48.793 84.4982 48.8511C84.4293 48.8181 84.3627 48.7843 84.3016 48.7495C83.2063 48.125 82.4354 46.6491 81.0529 46.8488C79.8191 47.0272 79.007 48.5734 78.2733 49.4801C75.9182 49.7534 73.5648 49.0485 71.6486 47.7072C71.5513 47.2481 71.5456 46.7851 71.6136 46.3275ZM89.0405 44.7371C88.8521 44.2105 88.6149 43.7005 88.3336 43.22C87.4037 41.6311 85.9762 40.3651 84.2817 39.6414C80.273 37.9318 75.0862 39.1369 71.8488 41.9408C70.743 42.8993 69.6248 44.3078 69.2867 45.8229C69.1857 45.8428 69.0904 45.8952 69.012 45.9689C66.673 44.5021 64.2644 43.091 62.3796 41.0578C61.0109 39.5805 60.0588 37.8323 59.4759 35.9112C59.4282 35.7531 59.1722 35.7762 59.18 35.9512C59.1822 35.9921 59.1844 36.0329 59.1866 36.0739C59.1622 35.9986 59.047 36.0374 59.0381 36.1104C58.7245 38.4441 58.3321 40.9184 58.6934 43.2643C58.9095 44.664 59.5479 45.6888 60.4013 46.7954C61.3156 47.9815 62.3508 49.0847 63.4092 50.1427C64.0808 50.8142 64.7824 51.5888 65.6047 52.0812C66.5612 52.6533 67.6462 53.0883 68.6669 53.5297C69.7054 53.9801 70.7594 54.3961 71.8333 54.7569C73.9801 55.4806 76.1989 55.9807 78.4565 56.1998C80.2641 56.3747 82.33 56.5651 84.0622 55.8878C85.3899 55.3688 86.4617 54.4306 87.3117 53.3018C88.2371 52.0724 88.9687 50.6721 89.3731 49.1954C89.7934 47.6615 89.1291 44.9844 89.0405 44.7371Z" fill="black"/>
</svg>
